<svg xmlns="http://www.w3.org/2000/svg" width="52" height="52" fill="none" xmlns:v="https://vecta.io/nano"><circle cx="26" cy="26" r="25" fill="#007de8" stroke="#121212" stroke-width="2"/><path d="M36 19.15v3.7c0 2.25-.9 3.15-3.15 3.15h-2.7C27.9 26 27 25.1 27 22.85v-3.7c0-2.25.9-3.15 3.15-3.15h2.7c2.25 0 3.15.9 3.15 3.15zm-11 10v3.7c0 2.25-.9 3.15-3.15 3.15h-2.7C16.9 36 16 35.1 16 32.85v-3.7c0-2.25.9-3.15 3.15-3.15h2.7c2.25 0 3.15.9 3.15 3.15zM28.78 36c-.27 0-.52-.15-.65-.38-.13-.24-.13-.52.01-.76l.97-1.62c.21-.36.67-.47 1.03-.26s.47.67.26 1.03l-.18.3a5.73 5.73 0 0 0 4.29-5.54c0-.41.34-.75.75-.75a.75.75 0 0 1 .74.76A7.23 7.23 0 0 1 28.78 36zM16.75 23.97a.75.75 0 0 1-.75-.75A7.23 7.23 0 0 1 23.22 16a.77.77 0 0 1 .66.38c.13.24.13.52-.01.76l-.97 1.61c-.22.36-.68.48-1.03.26-.36-.21-.47-.67-.26-1.03l.18-.3c-2.46.64-4.29 2.88-4.29 5.54a.75.75 0 0 1-.75.75z" fill="#fff"/></svg>