<svg xmlns="http://www.w3.org/2000/svg" width="486" height="470" fill="none" xmlns:v="https://vecta.io/nano"><g opacity=".06" clip-path="url(#A)" fill="#31353a"><path d="M311.725 470c2.84-9.278 5.512-18.63 6.173-28.523.57-8.595-.918-16.717-4.903-24.113-1.65-3.06-3.658-5.746-6.028-8.085-7.485-7.407-16.195-11.854-25.638-14.661-9.583-2.85-19.351-4.337-29.134-5.799-11.247-1.682-22.494-3.401-33.439-7.044-6.431-2.139-12.595-4.983-18.248-9.199a46.39 46.39 0 0 1-10.741-11.271c-4.622-6.818-6.399-14.608-6.155-23.156.222-7.791 2.153-15.029 5.16-21.921 4.437-10.172 10.488-18.814 18.321-25.706 12.631-11.113 26.664-18.577 42.362-21.531 6.481-1.22 13.015-1.788 19.455.178 2.348.715 4.695 1.856 6.743 3.359 4.559 3.344 6.124 8.837 4.582 14.851-1.497 5.83-4.645 10.356-8.457 14.351-.489.51-.959 1.067-1.511 1.467-.334.241-.864.41-1.194.268-.248-.106-.506-.799-.447-1.167.289-1.819.565-3.659 1.067-5.404.9-3.118 2.121-6.119 2.921-9.268 1.47-5.809.235-8.269-4.78-10.067-3.347-1.198-6.797-1.398-10.252-1.156-20.347 1.424-37.722 10.813-52.339 27.056-6.72 7.465-11.496 16.544-13.915 27.11-1.104 4.815-1.276 9.704-.647 14.629.538 4.222 2.107 7.896 4.292 11.271 4.197 6.482 9.664 11.118 15.865 14.661 7.887 4.51 16.312 7.107 24.918 8.784 10.813 2.113 21.69 3.817 32.53 5.751 9.158 1.635 18.181 3.911 26.773 8.064 5.5 2.655 10.547 6.224 15.173 10.572 7.928 7.448 11.863 17.331 12.862 28.954.755 8.789-.692 17.316-2.347 25.811-.633 3.254-1.452 6.466-2.18 9.699-.09.404-.122.83-.181 1.246l-6.661-.011zm-109.232 0c.195-2.644.15-5.351.629-7.922l5.119-25.948c2.361-12.994 4.148-26.094 4.839-39.373.028-.547-.144-1.104-.203-1.661-.068-.652-.244-1.335-.145-1.961.516-3.27 4.369-5.588 6.942-4.19.968.521 1.891 1.157 2.809 1.788 5.368 3.706 11.315 5.267 17.375 6.476 3.6.72 7.168 1.645 10.745 2.523 1.737.426 2.705 1.567 2.886 3.239.176 1.608-.566 3.048-2.112 3.995l-4.387 2.607c-5.649 3.291-10.506 7.801-14.92 13-.135.158-.244.347-.538.762h1.366l10.474-.326c.574-.015 1.153-.026 1.723.058 1.316.195 2.343.91 2.781 2.445.434 1.524.037 2.865-.94 3.906-.814.867-1.732 1.608-2.637 2.344-2.605 2.119-5.011 4.489-6.933 7.459-.384.594-.714 1.241-1.298 2.271 1.633-.336 2.958-.389 4.147-.888 4.084-1.724 8.127-3.575 12.166-5.446 1.257-.584 2.234-1.588 2.632-3.196.099-.405.321-.773.524-1.13 1.285-2.282 3.551-3.165 5.586-2.198 1.976.941 3.111 3.375 2.532 6.014-.85 3.88-1.696 7.78-2.872 11.533-2.333 7.444-4.893 14.793-7.349 22.184-.176.526-.257 1.088-.384 1.635h-8.385l6.734-26.531c-2.288.846-4.631 1.919-7.059 2.555-3.148.825-6.354 1.713-9.552 1.834-4.224.158-6.1-3.506-4.518-8.074 1.122-3.244 2.917-5.961 5.038-8.4.362-.421.828-.721 1.244-1.078l-.298-.478c-1.66.178-3.32.42-4.984.515-1.963.11-3.957.32-5.893.063-3.351-.447-4.681-4.064-2.849-7.333.244-.437.506-.878.814-1.257 4.988-6.098 10.085-12.048 16.394-16.364.289-.2.556-.447 1.117-.899-7.164-1.146-13.934-2.529-20.193-6.287-.185 2.844-.244 5.461-.538 8.037-1.615 14.083-4.351 27.888-7.887 41.471l-6.029 22.221-3.713.005zm141.043 0c-2.235-3.317-3.153-7.191-3.487-11.297-.588-7.27-.032-14.509.633-21.721.407-4.458 1.112-8.873 1.664-13.315.059-.453.027-.941-.041-1.399-.275-1.724.073-2.823 1.38-3.595l26.578-15.687c.864-.504 1.438-1.035 1.764-2.139.665-2.245 2.193-3.296 3.858-2.876 1.795.458 2.74 2.308 2.392 4.921-.393 2.922-.977 5.814-1.293 8.747-.466 4.353-.823 8.726-1.108 13.1-.082 1.256.126 2.581.411 3.811.502 2.155 1.755 3.191 3.654 3.044 3.143-.252 5.943-1.777 8.665-3.47.303-.189.466-.951.475-1.456l.1-8.879c.027-1.235.104-2.491.339-3.69.457-2.334 2.03-3.837 3.894-3.911 1.872-.073 3.586 1.283 4.056 3.643.457 2.313.778 4.71.814 7.076l.141 24.628c.004 1.193.013 2.392-.068 3.58-.195 2.986-2.474 4.279-4.609 2.591-1.781-1.408-2.867-3.501-3.319-5.856-.538-2.781-.755-5.64-1.094-8.468-.077-.647-.082-1.299-.132-2.166-.56.294-.945.536-1.352.704-2.352.983-4.649 2.25-7.068 2.865-4.749 1.214-9.054-1.635-10.922-6.886-1.176-3.302-1.389-6.776-1.095-10.277.308-3.654.76-7.297 1.149-10.94l.167-1.477-3.183 1.987-16.105 10.514c-.267.173-.547.594-.579.935l-2.107 22.347c-.317 3.559-.602 7.134-.76 10.703-.217 4.905-.416 9.841 1.854 14.325l-5.666-.016zm-64.853 0l6.78-27.225 3.229-12.364h-1.443c-3.645-.053-7.326.231-10.926-.252-4.143-.558-5.735-3.89-4.374-8.511.688-2.329 1.769-4.505 2.678-6.75l1.347-3.217c-.94-.079-1.659-.252-2.365-.184-4.359.426-8.66 1.083-12.486 3.89-1.542 1.13-2.985 1.025-4.125-.105-1.307-1.298-1.578-2.996-1.099-4.821.692-2.644 2.393-4.315 4.396-5.545 4.337-2.655 9.004-3.559 13.852-3.007 1.371.157 2.759.615 4.034 1.219 4.744 2.25 6.282 6.808 4.12 12.196-.832 2.071-1.876 4.027-2.822 6.04l-.85 1.814c1.732 0 3.274.1 4.803-.027 2.003-.163 4.02-.373 5.992-.804 1.384-.3 2.741-.894 4.043-1.54 1.515-.752 3.003-1.025 4.523-.195 2.483 1.357 3.048 5.026.999 7.307-1.275 1.425-2.03 3.081-2.582 4.947l-10.537 35.615c-.145.483-.19 1.009-.281 1.514l-6.906.005zM-50 334.459l2.546-1.704 24.869-18.572c3.912-2.954 7.2-6.76 10.402-10.697 4.902-6.03 7.584-13.179 8.48-21.327.099-.894.235-1.803.493-2.65.538-1.761 1.596-2.891 3.261-3.017 1.651-.126 3.016.725 3.582 2.444.588 1.793 1.045 3.78 1.013 5.672-.045 2.592-.425 5.231-.981 7.749-1.284 5.804-3.622 11.039-6.901 15.686-3.767 5.341-7.91 10.235-12.839 14.136l-15.661 12.19L-50 348.216v-13.757zM328.987 470c-4.152-17.153-2.822-34.222.773-51.196.678-3.196 2.017-6.24 3.288-9.22.597-1.399 1.669-2.582 2.682-3.67.859-.92 2.008-1.172 3.084-.383 1.04.757 1.198 2.002.999 3.296-.167 1.077-.402 2.144-.669 3.196-2.487 9.867-3.423 20.012-3.93 30.226-.398 8.012-.588 16.028.448 24.003.163 1.267.479 2.502.728 3.753l-7.403-.005zm-114.165 0l3.432-23.55c.145-.978.344-1.977.674-2.886.755-2.087 2.415-2.939 4.238-2.198 1.854.757 3.107 2.134 3.559 4.5.678 3.585 1.438 7.149 2.293 10.682.339 1.393.873 2.791 1.578 3.984 1.624 2.75 3.415 5.368 5.124 8.049.29.452.534.946.796 1.419h-21.694zm-142.028 0l7.06-4.326.33-.558c-.393-.247-.823-.441-1.18-.746l-5.816-5.047c-5.305-4.767-5.156-12.137.461-16.422 1.601-1.219 3.532-2.034 5.409-2.539 1.013-.273 2.343.274 3.329.889 1.049.651 1.302 2.05.927 3.411-.33 1.199-1.058 1.703-2.193 1.893-2.198.373-3.812 1.961-4.839 4.189-.244.531-.027 1.651.33 2.177.674.993 1.624 1.729 2.419 2.623 2.031 2.276 4.165 4.458 6.024 6.913 1.723 2.281 1.777 4.936.317 7.538L72.794 470zm-32.3 0l-.841-4.6c-.683-5.125.981-9.22 4.446-12.253 4.369-3.827 9.267-4.3 14.223-1.945 2.112 1.004 3.989 2.765 5.82 4.41.751.673 1.212 1.898 1.605 2.965.362.978.131 2.008-.647 2.697-.733.652-1.425.236-2.175-.142-1.945-.978-3.88-2.119-5.924-2.671-4.12-1.109-8.584 1.351-10.795 5.557-.999 1.903-.746 3.942-.529 5.982h-5.183zM.548 470l10.053-24.56 2.243-4.768c1.022-1.971 2.573-2.644 4.038-1.876 1.407.735 2.067 2.523 1.429 4.641a304.11 304.11 0 0 1-3.876 11.907l-5.26 14.651L.548 470zm263.587 0l2.93-15.939 1.244-7.738c.185-1.009.484-2.039.918-2.933.868-1.782 2.546-2.623 4.188-2.281 1.709.357 3.107 1.85 3.292 3.926.118 1.341.072 2.839-.33 4.074L269.308 470h-5.173zm-247.311 0l6.146-16.501.665-1.682c.452-1.183 1.212-1.814 2.334-1.604s1.728 1.11 1.773 2.376c.036.983.023 2.03-.213 2.96l-3.424 12.811-.38 1.635-6.901.005zm31.314 0c1.185-3.806 3.46-6.298 6.806-7.359 1.37-.437 2.655.32 3.125 1.587.357.962.321 1.777-.529 2.492-1.208 1.014-2.325 2.181-3.482 3.28h-5.92zm16.624-312.685v-1.793l-.081-7.59c.081-2.566 1.492-4.374 3.433-4.758 1.918-.378 3.858.804 4.595 3.17.538 1.724.832 3.596 1 5.43.692 7.633-.072 15.161-1.497 22.61-.253 1.324-.773 2.623-1.357 3.816-.715 1.467-1.872 2.313-3.392 2.061-1.506-.253-2.596-1.409-2.763-3.049a54 54 0 0 1-.186-8.243c.086-1.556-.19-2.276-1.461-2.828-5.427-2.355-10.994-3.632-16.787-3.07-8.556.831-15.29 5.478-20.152 13.663-4.332 7.291-2.198 16.07 4.758 19.865 3.69 2.013 7.647 2.613 11.668 2.402 12.396-.652 23.589-5.356 33.376-14.177 6.359-5.73 11.514-12.701 13.943-21.874 1.61-6.082 2.451-12.316 1.42-18.656-1.207-7.46-4.4-13.489-9.936-17.731-7.638-5.856-15.86-7.886-24.801-5.189a107.87 107.87 0 0 0-7.788 2.702c-.841.326-1.515 1.188-2.334 1.64-.547.3-1.262.526-1.818.379-1.434-.379-2.279-2.271-1.813-3.969a6.8 6.8 0 0 1 1.067-2.224c.611-.82 1.307-1.64 2.108-2.171 10.316-6.849 20.993-9.746 32.489-4.005 8.995 4.494 15.878 11.375 19.37 22.315 2.542 7.964 2.207 15.991.76 24.128-2.252 12.643-8.461 22.384-16.778 30.385-11.347 10.913-24.57 16.748-39.196 18.288-4.676.494-9.303-.068-13.676-2.182-7.742-3.737-12.229-10.539-13.463-20.138-.552-4.285.402-8.348 2.04-12.196 6.214-14.577 19.664-23.056 33.552-21.174 4.473.604 8.837 1.676 12.948 3.9.185.105.389.142.755.263zm389.777 97.072l-6.417 2.534-7.928 2.644c-1.628.505-2.953-.205-3.387-1.656-.462-1.545.212-3.122 1.84-3.811l17.977-7.486c.724-.299 1.52-.457 2.293-.494 2.524-.11 3.935 2.418 2.849 5.052-2.967 7.175-4.197 14.934-5.608 22.63-.022.127.018.269.05.631 4.522-2.265 9.538-2.612 13.961-5.814-1.398-1.13-2.696-2.118-3.935-3.201-.945-.825-1.985-1.614-2.691-2.681-1.949-2.949-.574-6.724 2.605-7.144 5.626-.752 11.094-2.161 16.299-4.815.561-.284 1.163-.468 1.76-.647 2.559-.746 4.404.825 4.246 3.922-.14 2.702-.588 5.393-1.04 8.058l-4.143 23.861 13.559-4.342-4.233-11.166c-.199-.525-.43-1.04-.575-1.582-.624-2.302.358-4.316 2.406-4.694 3.324-.621 6.671-1.083 10.004-1.661 1.42-.247 2.822-.636 4.233-.947 1.872-.415 3.184.458 3.586 2.629.226 1.235.303 2.581.15 3.827l-3.795 29.317c-.23 1.74-.524 3.469-.782 5.204s-1.248 2.881-3.039 3.249c-2.587.536-5.21.857-7.783 1.472l-24.11 5.924c-1.546.394-3.016 1.22-4.509 1.882-.687.305-1.334.752-2.026 1.046-3.197 1.372-5.752-.231-6.272-4.158-.688-5.215-.801-10.461.226-15.66l.375-1.961c-1.682.253-3.22.405-4.717.773-.285.068-.515.967-.606 1.519l-4.821 29.985c-.407 2.418-1.135 4.784-1.904 7.086-.37 1.115-1.067 2.171-1.822 3.002-1.312 1.445-3.157 1.088-3.885-.841-.457-1.209-.719-2.713-.57-4.001.462-3.921 1.167-7.801 1.769-11.701l4.187-27.357c.425-2.922 1.737-4.684 4.057-5.73 3.179-1.435 6.454-1.203 9.737-.967 1.063.079 2.125.273 3.166.552 2.496.668 3.559 2.844 2.894 5.73-.425 1.845-.873 3.685-1.194 5.551-.484 2.797-.298 5.588.19 8.337.154.043.249.106.312.074 6.06-2.917 12.55-3.233 18.926-4.289 5.206-.863 10.389-1.877 15.571-2.913.403-.079.946-.767 1.022-1.261.462-2.955.81-5.935 1.185-8.911l2.528-20.123c.055-.42.077-.841.145-1.593l-8.896 2.214c.15.699.204 1.172.344 1.603l3.342 9.988c.52 1.503.14 2.844-1.234 3.49-1.484.7-2.999 1.304-4.505 1.94l-13.079 5.509c-1.574.668-3.166 1.351-4.671-.073-1.556-1.472-1.289-3.459-.95-5.425l4.78-27.651c.077-.452.118-.91.195-1.514l-8.855 3.548c.673.883 1.352 1.64 1.894 2.513.814 1.309 1.701 2.607 2.257 4.064.819 2.139.023 4.194-1.84 5.03l-13.125 5.777c-1.917.847-3.835 1.698-5.721 2.639-3.717 1.867-6.566-.383-5.915-5.02.909-6.492 2.153-12.926 3.261-19.382.086-.594.217-1.188.402-2.134zM443.961 83.504c1.045-1.062 1.986-1.819 2.7-2.797.737-1.009 1.194-2.281 1.881-3.354 1.027-1.598 1.986-3.322 3.257-4.631 2.641-2.728 5.662-2.534 8.136.4 1.112 1.319 2.053 2.854 2.957 4.389 1.257 2.129 2.976 3.186 5.138 3.49 3.916.552 7.168-3.175 5.956-7.491-1.778-6.335-3.912-12.396-9.271-16.328-4.957-3.633-9.968-6.797-15.666-8.437-1.352-.389-2.632-1.114-3.984-1.488-1.081-.3-2.239-.499-3.338-.4-1.863.174-3.107-1.072-2.677-3.212a7.41 7.41 0 0 1 1.424-3.075c2.773-3.454 6.287-4.153 10.081-3.128 1.913.515 3.767 1.335 5.612 2.139.796.347 1.172.152 1.561-.668 1.221-2.555 1.058-4.962-.887-6.829-1.135-1.088-2.569-1.882-3.975-2.45-3.491-1.419-7.1-1.335-10.727-.794-.882.131-1.823.158-2.682-.063-1.741-.452-2.424-2.366-1.438-4.095.502-.878 1.257-1.682 2.057-2.176 6.531-4.069 13.002-3.795 19.329.636.719.505 1.194.536 1.855-.005a41.12 41.12 0 0 1 3.201-2.418c5.744-3.858 8.819-9.793 9.986-17.227l.276-1.687.267-1.703h6.562c-2.216 12.779-8.38 21.642-18.823 26.563 2.945 5.598 2.375 10.677-1.288 15.466.343.258.655.457.94.704 3.695 3.18 7.557 6.13 11.03 9.609 4.143 4.153 5.749 10.046 6.698 16.07.407 2.581.403 5.346.104 7.959-.959 8.374-7.403 12.758-14.123 11.507-3.37-.626-6.106-2.444-8.127-5.656l-2.307-3.695c-.52.809-.972 1.446-1.356 2.139-.778 1.404-1.357 3.012-2.321 4.211-1.406 1.761-2.921 3.543-4.671 4.763-3.591 2.497-7.195 1.314-9.52-2.739-1.845-3.217-2.424-6.86-2.546-10.624l-.244-11.455c-.023-.946-.154-1.887-.254-3.044-.538.242-.949.399-1.338.61-2.243 1.193-4.45 2.476-6.725 3.569-1.434.689-2.931 1.335-4.455 1.609-8.606 1.567-13.024-7.959-11.925-14.425.863-5.078 2.102-10.13 3.712-14.956 2.076-6.219 4.627-12.233 7.092-18.273 2.781-6.813 6.408-12.995 10.646-18.704.678-.915 1.329-1.425 2.392-1.283.805.105 1.628.021 2.65.021-.312 1.036-.479 1.929-.832 2.707-.9 1.982-1.836 3.948-2.849 5.856-3.098 5.83-5.748 11.912-7.838 18.309l-6.073 19.056c-.661 2.187-.982 4.542-1.267 6.85-.149 1.235-.076 2.602.227 3.795.655 2.607 2.026 3.385 4.26 2.623.904-.31 1.786-.726 2.636-1.193 2.678-1.456 5.373-2.886 8.001-4.463 4.074-2.45 7.353-1.64 8.38 4.694.814 5.01 1.203 9.993 1.085 15.082-.059 2.592.371 5.204.66 7.796.05.662.407 1.288.778 2.339zM107.73 180.045c1.185-.835 2.451-1.545 3.532-2.533l6.218-6.093c2.755-2.749 5.64-5.267 9.081-6.765 1.791-.784 3.596-1.036 5.382.005 2.044 1.193 3.017 3.285 3.492 5.761.669 3.47.14 6.881-.643 10.193-1.533 6.487-3.297 12.9-4.884 19.372-1.547 6.308-2.56 12.747-2.917 19.292-.122 2.26.009 4.589.344 6.823.429 2.886 1.917 4.91 4.445 5.725.358.116.683.352 1.004.731-1.239.93-2.555 1.24-3.934.972-2.555-.489-4.296-2.292-5.436-4.894-1.633-3.732-2.298-7.759-2.316-11.912-.027-7.622 1.258-14.997 3.324-22.199l3.908-13.127c.637-2.307.995-4.715 1.465-7.086.072-.368.077-.762.077-1.14-.014-2.361-.47-2.802-2.18-1.598-2.483 1.75-4.866 3.711-7.218 5.693-2.293 1.934-4.4 4.168-6.761 5.971-1.515 1.157-3.279 2.014-5.033 2.566-2.777.872-4.93-.689-5.848-3.88-.85-2.954-.61-5.945-.072-8.915 1.081-5.993 3.5-11.303 6.413-16.312 2.32-3.995 4.952-7.749 7.222-11.781 3.297-5.845 4.03-12.395 3.288-19.219-.181-1.655-.746-2.98-2.157-3.879-1.737-1.104-2.302-3.096-1.705-4.852.606-1.793 2.238-2.65 4.228-2.213.204.042.407.084.602.163 11.785 4.815 22.033 11.959 28.22 25.222 2.026 4.347 3.487 8.952 4.558 13.731.073.315.163.625.376 1.445.303-.583.438-.92.633-1.198 4.948-6.966 10.836-12.49 18.063-15.97l33.914-16.344c3.966-1.908 7.878-3.916 10.858-7.675.914-1.151 1.759-2.407 2.456-3.743.868-1.666.588-2.986-.945-3.769-1.321-.678-2.818-1.214-4.238-1.219-3.835-.011-7.611.557-11.116 2.644-.498.299-1.438.384-1.782.037-.366-.368-.538-1.504-.321-2.051.371-.946.968-2.034 1.718-2.47 5.102-2.934 10.425-4.342 16.069-2.35.886.315 1.745.867 2.51 1.488 2.885 2.339 3.853 5.982 2.116 9.53-1.257 2.571-2.962 4.915-4.739 7.06-2.565 3.102-5.803 5.168-9.181 6.85l-26.773 13.189c-3.55 1.761-7.118 3.491-10.578 5.483-7.363 4.237-13.206 10.461-17.353 18.735-.646 1.293-.963 2.818-1.42 4.237-.298.936-.475 1.945-.886 2.802-.697 1.456-2.04 2.082-3.36 1.75-1.321-.325-2.343-1.529-2.474-3.175-.082-1.03 0-2.102.145-3.127.506-3.554.303-7.013-.652-10.461-2.473-8.969-6.476-16.801-12.635-23.009-1.534-1.546-3.252-2.839-4.93-4.285-2.415 10.23-7.616 18.299-12.676 26.452-3.722 5.998-7.06 12.228-8.512 19.54-.352 1.766-.37 3.622-.538 5.436.186.136.371.241.552.346zM219.163 63.581l1.638.615c7.118 2.339 12.798 7.328 17.737 13.457 3.966 4.926 5.951 10.997 6.476 17.726.099 1.267.633 2.486.728 3.753.154 2.06.136 4.147.136 6.218 0 .358-.254.715-.426 1.173-.271-.242-.429-.321-.511-.463l-5.309-8.937c-5.133-8.421-12.03-12.443-20.984-11.213-5.382.736-10.75 1.703-16.15 2.224-11.283 1.083-21.025-3.28-28.993-12.432-6.088-6.997-7.964-15.897-6.639-25.595 1.185-8.679 4.196-16.601 8.809-23.545 7.775-11.696 23.522-21.5 40.666-16.028 11.343 3.617 19.334 19.529 15.341 33.58-1.647 5.798-4.337 10.782-8.204 14.908l-4.315 4.558zm12.514 16.259c-2.456-2.87-4.83-5.767-7.973-7.617-4.206-2.476-8.566-4.106-13.35-3.906-1.054.042-1.968-.415-2.198-1.803-.19-1.151.416-2.197 1.673-2.602 1.176-.384 2.406-.673 3.623-.747 1.171-.074 2.084-.547 2.754-1.588L221 53.956c1.989-3.291 3.197-6.971 3.821-10.924 1.569-9.983-2.908-19.403-10.709-22.73-14.187-6.051-26.633 1.624-33.466 12.243-3.329 5.178-5.445 11.102-6.648 17.426-1.316 6.892-.322 13.421 3.595 18.756 5.033 6.85 11.555 10.897 19.447 11.554 4.635.389 9.167-.605 13.725-1.298 6.992-1.072 14.011-2.755 20.912.857zM107.712 294.207c3.215-1.356 6.449-2.428 9.126-4.783.909-.799 1.597-2.192 1.99-3.48.71-2.334.529-4.784.045-7.118-.57-.084-1.081-.063-1.519-.247-1.086-.457-1.836-1.346-1.85-2.744-.014-1.351.71-2.187 1.746-2.671 2.193-1.025 4.545.179 5.648 3.018 1.298 3.333 1.38 6.844.864 10.392-.597 4.122-2.451 7.386-5.63 9.247-3.618 2.119-7.354 4.016-11.157 5.63-5.631 2.392-11.429 4.248-17.032 6.713-4.133 1.819-8.14 4.085-12.075 6.44-3.595 2.15-6.485 5.372-8.66 9.362-2.79 5.115-1.402 8.695 3.745 9.736 2.415.489 4.617-.021 6.259-2.287.339-.468.479-1.409.339-2.019-.457-2.002-.244-3.39.873-4.231 1.108-.836 2.682-.61 3.885.562 1.868 1.824 2.279 4.752.846 7.381-3.016 5.53-7.353 8.232-13.011 7.538-1.768-.216-3.577-.789-5.196-1.64-5.124-2.697-7.295-9.194-5.178-15.24 1.936-5.535 5.409-9.656 9.484-13.094 5.608-4.731 11.885-7.922 18.474-10.293l11.926-4.116c.461-.158.918-.342 1.356-.51-1.913-5.872-1.569-12.043-2.496-18.189-.687.452-1.257.794-1.8 1.183-1.814 1.309-3.573 2.728-5.436 3.932-3.564 2.308-7.358 2.886-11.32 1.677-5.594-1.714-7.439-7.375-4.215-12.968 1.918-3.328 4.572-5.725 7.494-7.744 4.717-3.259 9.9-5.104 15.2-6.518 6.137-1.64 12.342-2.77 18.637-3.133 4.658-.268 9.276.152 13.839 1.309.353.089.705.152 1.189.252l.285-7.643c.064-1.477.091-2.965.303-4.416.33-2.218 1.755-3.596 3.464-3.569 1.742.031 3.13 1.556 3.438 3.806.085.609.171 1.235.158 1.85l-.66 28.907c-.046 1.372-.706 2.828-1.366 4.037-.67 1.23-1.854 1.735-3.143 1.409-1.298-.326-2.076-1.351-2.366-2.807a17.2 17.2 0 0 1-.321-3.117l.036-10.456c.028-1.167-.271-1.514-1.27-1.635-8.873-1.099-17.566.231-26.127 2.812-4.323 1.304-8.579 2.965-12.776 4.737-3.215 1.356-6.092 3.532-8.706 6.14-.425.426-.941.725-1.307 1.246 2.044 1.251 3.907 1.277 5.689.352 1.565-.815 3.025-1.903 4.536-2.865 1.836-1.162 3.604-2.513 5.531-3.428 3.111-1.482 5.463-.068 6.051 3.785.579 3.796.742 7.675 1.099 11.513l.656 6.529c.045.457.239.888.407 1.466zm290.437-113.021c-2.786 1.593-5.31 1.719-7.869.957-5.767-1.724-9.421-7.207-9.525-14.44-.108-7.607 2.384-14.041 6.892-19.472 2.474-2.98 5.36-5.33 8.471-7.333.461-.294.945-.978 1.031-1.556l2.926-21.201c.489-3.963.724-7.969 1.022-11.964.059-.778-.113-1.577-.208-2.77-1.429.73-2.74 1.177-3.848 2.002l-12.243 9.358-9.23 6.828c-.963.678-2.107 1.083-3.215 1.398-3.116.884-5.604-.552-6.667-4.084-.701-2.324-.954-4.821-1.492-7.218-.199-.883-.529-1.771-.977-2.512-.633-1.047-.895-2.035-.276-3.165.57-1.041 1.845-1.598 2.822-.899.9.641 1.805 1.582 2.275 2.644.701 1.588 1.036 3.401 1.506 5.126a42.21 42.21 0 0 1 .62 2.623c.239 1.172.814 1.524 1.7.914 2.79-1.908 5.622-3.737 8.321-5.803 4.559-3.485 8.964-7.254 13.577-10.645 1.872-1.377 4.043-2.408 6.2-3.023 3.586-1.03 6.219 1.162 6.96 5.362.683 3.853.335 7.728-.14 11.549l-2.94 21.637c-.067.505-.104 1.02-.167 1.693 1.606-.42 3.066-.841 4.536-1.172 4.229-.957 8.475-1.183 12.735-.237 4.88 1.088 9 3.817 12.437 7.943 6.069 7.291 5.413 17.915-1.524 24.061-3.541 3.138-7.498 5.414-11.921 6.208-9.574 1.719-20.125-4.684-22.382-17.91-.077-.457-.176-.904-.312-1.582-3.188 3.464-5.567 7.265-6.779 11.959-1.511 5.856-.905 8.053 3.283 11.696.914.794 1.958 1.388 2.944 2.066l1.457.962zm19.152-37.307c-4.273.063-8.294 1.503-12.084 3.821-2.795 1.709-2.252 1.12-1.953 4.358.37 4.053 1.284 7.875 3.952 10.835 7.087 7.874 16.765 5.819 22.676-1.393 2.654-3.239 2.397-8.117-.339-11.424-3.32-3.989-7.386-6.118-12.252-6.197zm21.952 138.779l-.633 11.087.046 7.296c.185 3.78-.828 5.935-4.012 6.755-3.392.873-6.879 1.314-10.343 1.761-12.513 1.614-25.122 1.136-37.663 2.061-11.107.82-22.182 2.134-33.276 3.243-2.822.284-5.64.699-8.466.904-1.547.111-3.134.079-4.658-.21-3.555-.683-4.979-3.858-3.424-7.617 1.497-3.611 3.166-7.123 4.735-10.692.633-1.446 1.294-2.892 1.773-4.411.357-1.13.597-2.376.62-3.574.063-3.275 1.09-5.32 3.844-5.919 5.562-1.21 11.157-2.387 16.783-3.028 10.261-1.178 20.577-1.719 30.825-2.976 8.244-1.009 16.425-2.702 24.643-4.053 3.333-.546 6.679-1.014 10.026-1.461 6.408-.857 9.162 1.997 9.185 9.483l-.005 1.351zm-7.131 17.742l-.887-18.425c-.05-1.341-.389-1.877-1.556-1.83-3.898.158-7.814.037-11.695.416l-39.264 4.126-26.705 3.349c-.85.105-1.248.368-1.393 1.493-.203 1.587-.579 3.196-1.135 4.663-1.366 3.627-2.876 7.175-4.323 10.76l-.674 1.703 1.777-.157 17.683-1.583c11.225-.799 22.49-.089 33.719-1.361 8.864-1.004 17.778-1.398 26.665-2.134 2.614-.216 5.21-.673 7.788-1.02zm-69.936-153.851c1.045-.625 2.044-1.009 2.809-1.724 1.492-1.404 2.907-2.933 4.255-4.526l4.278-5.336c1.14-1.156 2.578-2.018 4.003-2.66 1.216-.547 2.442.021 3.337 1.193.869 1.141 1.181 2.613.548 3.869-1.33 2.66-1.488 5.636-1.968 8.506-2.261 13.584-3.383 27.304-3.591 41.134-.108 7.155 1.045 13.952 4.044 20.271.809 1.708 1.442 3.522 1.325 5.872-.71-.284-1.353-.405-1.859-.778-.719-.531-1.42-1.168-1.985-1.909-4.591-6.04-7.449-12.952-8.019-21.095-.61-8.721.073-17.369.918-26.006.511-5.256 1.267-10.482 1.94-15.944l-1.008 1.015c-2.198 2.287-4.618 4.153-7.494 5.078-3.392 1.088-5.933-.278-7.317-4.042-.724-1.972-1.217-4.053-1.845-6.072-.566-1.824-1.031-2.061-2.429-1.015-.995.742-1.877 1.693-2.786 2.582-2.107 2.055-4.138 4.221-6.322 6.161-1.194 1.056-2.573 1.913-3.971 2.554-4.391 2.024-8.52-.347-9.719-5.656-.506-2.245-.511-4.631-.872-6.928-.322-2.056-.701-4.117-1.28-6.088-.443-1.514-.851-1.519-2.022-.599-2.234 1.756-3.473 4.258-4.043 7.27-.773 4.09-.565 8.18.127 12.233.502 2.933.977 5.871 2.261 8.579 1.126 2.381-.303 5.03-2.745 5.462-2.008.352-3.763-.447-4.903-2.292-1.352-2.192-2.713-4.495-3.527-6.992-2.293-7.023-2.542-14.277-.81-21.532 1.466-6.134 4.536-10.892 9.534-13.725 5.201-2.949 10.162-1.209 13.21 4.5 2.134 3.995 2.609 8.489 2.908 13.036l.235 3.748c1.009-.877 1.845-1.471 2.546-2.234 1.619-1.761 3.071-3.743 4.776-5.377 1.628-1.562 3.351-3.175 5.273-4.095 4.631-2.224 9.28.494 10.768 6.045.475 1.766.674 3.632 1.004 5.456.104.589.235 1.178.416 2.061zm-52.813 87.105l-1.117 3.559c-2.162 5.525-6.766 8.374-11.275 7.007-2.523-.767-4.341-2.633-5.716-5.125-1.827-3.307-2.827-6.976-3.437-10.813-.059-.363-.127-.72-.226-1.272-.48.341-.841.62-1.221.862-2.379 1.498-4.667 3.275-7.164 4.426-9.723 4.479-18.877-1.561-20.744-13.526-.833-5.325-.249-10.456 1.582-15.413 1.846-4.988 4.514-9.304 7.91-13.01 4.568-4.984 9.601-9.273 14.847-13.237 1.525-1.151 2.832-1.172 3.89-.2.977.899 1.379 2.807.945 4.474-.398 1.509-1.47 2.003-2.573 1.077-.511-.431-.855-.536-1.393-.11-10.004 7.859-16.774 18.147-18.14 32.508-.086.899-.081 1.808-.104 2.718-.194 8.237 6.702 11.686 11.379 9.756 1.678-.693 3.31-1.697 4.78-2.87 1.718-1.372 3.328-2.975 4.798-4.694 1.013-1.183 1.71-2.734 2.528-4.137.254-.431.403-.946.661-1.372 1.108-1.845 2.993-2.434 4.54-1.441 1.497.957 2.148 3.097 1.37 5.105-2.08 5.351-1.388 10.619.245 15.86.316 1.009.823 1.997 1.42 2.817 1.542 2.124 4.106 2.056 5.314-.331.737-1.456 1.135-3.28 1.266-4.983.199-2.555-.009-5.152.036-7.728.032-1.845.959-3.238 2.284-3.69 1.361-.463 2.759.1 3.704 1.54.298.452.529.962.778 1.456.475.952.823 2.019 1.424 2.839 1.511 2.055 2.967 4.247 4.753 5.935 2.822 2.67 5.929 2.276 8.566-.626 5.612-6.182 7.2-14.95 4.174-23.219-5.079-13.867-15.828-20.17-26.732-19.14-5.707.536-9.429 4.563-11.835 10.324-1.05 2.508-.484 4.279 1.501 5.925.068.058.14.1.204.163.705.678 1.763 1.203 1.343 2.57-.389 1.257-1.425 1.493-2.438 1.535-2.067.09-3.677-.899-4.753-2.944-1.533-2.907-1.895-6.055-.81-9.204 2.122-6.151 5.36-11.287 10.655-14.236 2.85-1.587 5.947-1.861 9.045-1.566 10.587 1.004 18.791 6.692 24.417 17.19 2.75 5.13 5.07 10.545 5.631 16.658.872 9.536-2.628 16.854-9.199 22.153-4.373 3.527-9.018 3.006-13.427-.274-1.271-.941-2.402-2.134-3.686-3.296zM167.236 374.069l-.624 1.897c-2.718 9.762-8.66 15.114-17.167 16.932a28.62 28.62 0 0 1-13.947-.467c-8.928-2.529-13.712-10.535-12.704-21.149 1.027-10.792 6.725-18.835 15.227-21.484 2.252-.699 4.523-.941 6.829-.368 6.241 1.54 9.832 8.427 8.005 15.576-1.18 4.61-3.645 8.127-7.408 10.193-1.099.599-2.446.83-3.672.799-1.583-.037-2.845-1.472-3.157-3.123-.357-1.882.181-3.427 1.511-4.515 1.542-1.262 3.288-1.772 5.146-1.199.688.216 1.14.074 1.42-.604.462-1.104 1.05-2.208 1.23-3.386.525-3.48-1.492-6.077-4.481-5.53-8.371 1.53-13.219 8.879-12.808 18.136.154 3.417 1.746 6.114 4.224 8.022 5.852 4.51 15.168 4.6 20.939-.016 1.375-1.098 2.591-2.697 3.455-4.363 1.909-3.664 2.614-7.812 2.673-12.07.014-.898-.298-1.871-.651-2.696-.882-2.045-1.967-3.98-2.809-6.051-1.492-3.685-.597-7.433 2.058-9.147 2.718-1.756 6.119-.72 7.806 2.913 6.141 13.241 14.481 24.806 21.088 37.696 2.51 4.899 4.943 9.809 6.535 15.213.393 1.346.737 2.755.832 4.164.177 2.523-1.782 3.969-3.613 2.612-1.108-.82-2.076-2.029-2.881-3.259l-13.762-21.301c-2.799-4.242-5.802-8.295-8.715-12.437-.154-.221-.276-.468-.579-.988zm134.77-47.548l5.517-.042c.33-.016.859-.557.918-.931l2.555-17.358c.371-2.686 1.38-4.268 3.035-4.41 1.669-.142 3.016 1.346 3.482 4.074.615 3.58.208 7.149-.425 10.661-.552 3.033-1.239 6.035-1.935 9.031-.222.951-.584 1.903-1.05 2.728-.981 1.746-2.582 2.14-4.224 1.314-.569-.289-1.257-.425-1.881-.389-9.343.505-18.565 1.919-27.601 4.874-1.573.515-3.355.667-4.965.394-2.745-.463-3.519-3.359-1.769-5.893 1.131-1.64 2.655-2.671 4.374-3.002 3.676-.709 7.38-1.277 11.089-1.719 1.859-.22 3.758-.037 5.648-.037l.516-10.765c-.443 0-.923-.058-1.389.01l-23.611 3.322c-.719.105-1.488.516-2.063 1.036-2.772 2.502-5.766 4.4-9.271 5.052-5.947 1.109-9.488-1.698-10.768-8.522l-.18-.998-1.782.447c-3.926 1.082-7.86 2.102-11.94 1.351-.244-.048-.488-.069-.732-.121-6.902-1.509-9.714-8.327-6.418-15.55 1.28-2.807 3.202-4.815 5.649-6.166 2.849-1.572 5.866-2.555 9.004-2.765 1.303-.09 2.718.247 3.935.814.823.384 1.601 1.383 2.03 2.329.737 1.635-.23 3.17-1.795 3.002-3.559-.384-6.671 1.014-9.439 3.38-1.071.915-1.926 2.334-2.568 3.717-.71 1.529-.326 2.412 1.108 2.975 1.393.547 2.844 1.146 4.287 1.204 2.736.115 5.481-.084 8.217-.289.502-.037 1.095-.605 1.425-1.12.796-1.23 1.709-2.187 3.035-2.518 1.401-.347 2.808.278 3.586 1.587.791 1.336.823 3.028-.104 4.416-1.19 1.782-1.122 3.711-.715 5.72.29 1.414 1.153 2.265 2.334 1.96 1.411-.362 2.93-.841 4.056-1.808 1.525-1.309 2.804-3.054 4.035-4.757.868-1.204 1.736-2.03 3.156-2.14l17.927-1.556c2.904-.289 5.784-.888 8.688-1.177 1.117-.111 1.411-.626 1.556-1.804.465-3.732 1.022-7.448 1.578-11.165a8.76 8.76 0 0 1 .561-2.034c.746-1.824 2.234-2.834 3.871-2.708 1.678.132 3.152 1.414 3.568 3.402.267 1.277.353 2.649.308 3.968-.326 9.352-1.823 18.483-4.048 27.462-.095.352-.181.71-.375 1.514zM121.342 433.644l-29.31-1.335c-2.37-.121-4.785-.353-7.069-1.036-1.737-.515-3.433-1.603-4.898-2.833-2.148-1.809-2.573-4.222-1.673-7.144.932-3.023 2.79-5.183 5.273-6.272 3.211-1.403 6.521-2.644 9.877-3.422 13.463-3.117 27.08-3.627 40.738-2.471 8.521.721 17.018 1.735 25.525 2.66l14.693 1.746c1.199.163 2.429.615 3.501 1.261 2.537 1.53 3.668 4.164 3.663 7.418-.009 3.133-1.538 5.162-3.885 6.392-3.437 1.803-7.086 2.676-10.799 3.322-15.16 2.65-30.396 2.376-45.637 1.714zm53.144-11.334l.059-.615c-.801-.51-1.565-1.14-2.415-1.503-3.835-1.619-7.729-2.576-11.881-2.686-8.706-.227-17.398-.989-26.099-1.415-13.291-.657-26.547-.178-39.684 2.392-3.008.589-5.947 1.751-8.86 2.85-.877.331-1.56 1.335-2.334 2.034l.14.526c.828.368 1.628.877 2.483 1.072 1.284.3 2.6.494 3.907.536l25.009.736c17.525.967 34.99.457 52.393-2.192 2.446-.363 4.852-1.141 7.281-1.735zm-203.24-16.622c1.397-4.678 3.586-8.668 6.033-12.532 3.984-6.287 9.461-9.762 15.797-11.623 1.189-.347 2.528-.205 3.772-.042.692.095 1.334.699 2.347 1.278-1.66 1.172-2.89 2.202-4.233 2.959-4.993 2.818-8.927 6.955-12.279 12.091-2.795 4.279-5.644 8.437-7.028 13.673-.344 1.303-1.216 1.635-2.401 1.698-3.586.184-5.653-2.256-7.467-5.341-3.966-6.761-4.92-14.115-3.356-22.016 1.551-7.832 4.984-14.498 9.461-20.485 4.486-6.004 9.556-11.313 14.861-16.297l24.467-22.683c6.802-6.334 12.857-13.489 17.583-22.068.864-1.566 1.669-3.122 1.506-5.167-.045-.589.588-1.593 1.094-1.803.574-.237 1.691-.069 1.985.41.678 1.109 1.379 2.513 1.388 3.801.014 2.002-.28 4.121-.895 5.992-2.148 6.529-5.287 12.306-9.624 17.285-6.508 7.464-13.753 13.904-20.749 20.69l-18.185 17.584c-4.73 4.737-8.629 10.346-11.722 16.675-3.328 6.813-4.423 14.104-3.392 21.831.118.894.344 1.767.552 2.639.131.494.326.968.484 1.451zM85.791 56.773l-.629 15.019c-.208 4.268-1.343 8.237-3.044 11.996-.715 1.577-1.592 2.965-3.437 2.539-.149-.032-.321.053-.479.105l-27.365 9.052c-1.696.563-3.365 1.251-5.047 1.877-.823.305-1.637.641-2.474.883-4.844 1.383-8.24-1.74-7.932-7.528.249-4.715.891-9.394 1.212-14.104l1.547-25.564c.235-4.663 1.601-6.308 5.508-7.57 8.941-2.875 18.099-4.305 27.212-6.04 3.478-.662 7.01-1.062 10.528-1.241 3.148-.163 4.577 1.614 4.771 5.262.059 1.093.091 2.197.059 3.291l-.375 12.022c-.014.005-.032.005-.054 0zm-41.01 31.394c.498-.074.859-.089 1.203-.179l30.029-7.927a1.04 1.04 0 0 0 .62-.683c.389-2.728.864-5.457 1.049-8.206l1.248-21.579c.145-2.355.452-4.694.697-7.133-.421.047-.706.042-.977.11l-13.938 3.664c-5.495 1.609-10.944 3.433-16.412 5.162-.809.258-1.339.631-1.321 1.845.163 10.582-.963 21.064-1.908 31.562l-.289 3.364zm280.271-31.493l-4.188 6.955c-.976 1.524-1.99 3.065-3.183 4.358-2.601 2.812-5.934 2.203-7.236-1.624-1.022-3.012-1.312-6.361-1.913-9.562-.077-.41-.086-.836-.145-1.461l-1.379.757c-5.052 2.897-10.126 5.782-15.693 7.07-1.778.41-3.7.499-5.491.216-4.147-.657-6.458-4.579-5.526-9.341.402-2.061 1.036-4.205 2.044-5.93 1.814-3.102 3.727-6.235 6.06-8.789 7.539-8.253 16.118-14.766 25.706-19.398 1.804-.873 3.753-1.372 5.657-1.929 1.072-.315 2.121-.095 2.976.867.195.221.48.378.746.468 2.709.899 4.948 2.728 6.626 5.241 2.636 3.953 5.3 7.938 7.494 12.222 2.907 5.677 3.975 11.991 3.229 18.614a16.51 16.51 0 0 1-.552 2.786c-1.022 3.501-3.591 5.336-6.73 4.778-3.174-.568-5.811-2.276-7.796-5.257-.195-.3-.398-.589-.706-1.041zm-9.795 3.943l.28.074c.289-.442.615-.852.868-1.32l5.816-10.96c.891-1.677 2.062-2.902 3.88-2.76 1.859.142 2.908 1.551 3.645 3.391.466 1.167.878 2.387 1.497 3.438.489.825 1.262 1.43 1.909 2.129l.393-.284c0-.994.037-1.982-.004-2.975-.177-4.095-1.465-7.685-3.641-10.892-3.586-5.299-7.389-10.356-11.749-14.829-.706-.725-1.158-.846-1.981-.284-7.177 4.905-13.925 10.477-19.994 17.116-2.939 3.217-5.621 6.697-7.729 10.724-.393.752-.705 1.561-1.175 2.618.786 0 1.316.084 1.818-.016 1.288-.263 2.605-.489 3.848-.946 5.64-2.092 11.189-4.374 15.901-8.816 2.365-2.229 5.287-.783 5.906 2.691.159.883.204 1.798.231 2.702l.082 5.299c.027 1.293.126 2.597.199 3.901zm-23.504 74.504l.769-10.267-1.411.941c-2.08 1.393-4.242 2.529-6.671 2.781-3.807.4-5.766-1.898-5.372-6.287.47-5.21 2.365-9.736 5.133-13.741 3.989-5.778 6.503-12.349 8.145-19.424.361-1.556.57-3.18.66-4.789.095-1.756-.344-2.245-1.823-1.892-2.727.647-5.58 1.072-8.095 2.355-3.74 1.908-7.285 4.368-10.799 6.818-2.108 1.467-3.664 3.68-4.559 6.413-.719 2.197-.452 2.965 1.194 4.31.479.389.755 1.115 1.126 1.683-.543.347-1.058.898-1.637 1.014-4.541.904-7.589-2.297-7.241-7.633.263-4.032 1.746-7.533 4.26-10.225 7.042-7.533 15.264-12.154 24.924-12.953.244-.021.493-.01.741-.01 5.351.021 8.62 3.69 8.453 9.935-.072 2.676-.592 5.409-1.28 7.98-1.963 7.344-4.821 14.167-8.918 20.296-1.565 2.339-2.61 5.157-3.849 7.786-.244.52-.316 1.151-.547 2.029.715-.237 1.262-.274 1.673-.573 1.9-1.399 3.786-2.828 5.622-4.332.696-.573 1.257-1.367 1.877-2.066 1.261-1.419 2.455-1.777 3.658-1.099 1.226.689 1.66 2.124 1.506 4.169l-1.528 21.401c-.195 3.085-1.918 4.799-4.473 3.963-6.838-2.239-13.473-1.23-19.899 1.798-6.585 3.102-12.613 7.375-18.049 12.727-.773.762-1.479 1.624-2.316 2.555l1.149.793c-.461 2.056-2.519 2.965-4.219 1.824-1.511-1.009-2.23-2.66-1.927-4.589.244-1.556.706-3.201 1.479-4.479 1.144-1.892 2.456-3.779 4.029-5.167 7.702-6.792 16.024-12.148 25.729-14.041 3.631-.71 7.267-.841 10.921-.226.462.089.946.142 1.565.221zM418.346 407.77l-2.686.457-4.695 1.178a6.62 6.62 0 0 1-2.08.121c-3.007-.331-4.739-3.417-3.69-6.708.375-1.183.977-2.339 1.691-3.285l4.78-5.778c.543-.625 1.212-1.104 1.823-1.65l-.307-.536c-1.072-.206-2.185-.263-3.207-.647-1.782-.668-3.645-1.272-5.237-2.376-3.12-2.166-3.704-6.156-1.669-9.667.231-.395.48-.778.756-1.131 2.772-3.48 6.29-5.482 10.157-6.665 2.044-.626 3.681 1.204 3.369 3.511-.221 1.64-1.167 2.366-2.546 1.982-.244-.068-.642-.131-.755.021l-5.074 7.039c1.212.62 2.039 1.114 2.908 1.472 1.121.463 2.306.72 3.409 1.225 2.75 1.256 3.7 3.737 2.551 6.912-.534 1.478-1.357 2.823-2.116 4.18-.851 1.514-1.773 2.975-2.822 4.72.642.037 1.058.026 1.474.09 1.42.205 2.885.236 4.237.704 2.366.82 3.492 3.144 2.899 5.924-.38 1.793-1.08 3.491-1.628 5.231l-1.637 5.309.271.242 1.502-.841c2.41-1.377 4.88-2.523 7.584-2.818.529-.057 1.067-.1 1.601-.079 3.415.127 5.02 2.303 4.586 6.24-.113 1.02-.339 2.024-.547 3.239l2.894-1.267c2.315-1.025 4.387-.516 6.119 1.503 1.302 1.519 2.492 3.17 3.735 4.763 1.262 1.619 2.158 1.866 3.799.809.891-.573 1.751-1.272 2.492-2.076 3.668-3.995 6.666-8.606 8.688-13.952 2.446-6.466 2.333-12.926-1.669-18.472-7.362-10.209-20.143-7.318-25.19 2.854-1.809 3.643-.665 8.669 2.523 11.45.977.851 2.117 1.445 3.162 2.197.248.179.416.505.624.762-.299.153-.593.426-.896.442-8.534.441-14.53-9.452-11.301-18.751 2.265-6.513 6.797-9.92 12.491-11.287 12.92-3.106 23.86 5.857 25.828 21.201 1.478 11.502-1.47 21.101-9.864 27.861-2.116 1.709-4.626 2.912-7.096 3.848-3.446 1.309-6.612.205-9.135-2.823-1.072-1.288-1.967-2.812-2.79-4.337-.475-.872-.955-1.109-1.705-.741-.53.258-1.036.573-1.547.883-.62.374-1.208.826-1.85 1.136-2.989 1.456-5.789-.489-5.983-4.248-.077-1.493.149-3.012.244-4.631-1.474.589-2.957 1.251-4.473 1.772-1.569.536-3.156 1.13-4.771 1.351-2.862.394-4.64-1.782-4.047-5.068.343-1.924 1.13-3.764 1.854-5.567.642-1.593 1.501-3.065 2.198-4.636.316-.7.448-1.488.764-2.592zm-302.308-53.541v1.846c.144 12.137-.05 24.26-1.059 36.35-.167 1.993-.334 4.016-.787 5.93-.325 1.377-.936 2.802-1.745 3.864-1.687 2.197-4.55 1.566-5.377-1.215-.439-1.471-.575-3.222-.38-4.762 2.293-18.015 2.749-36.135 2.546-54.303-.014-1.146-.172-2.287-.177-3.427-.013-2.308 1.19-4.011 2.94-4.285 1.696-.263 3.234.957 3.736 3.144.402 1.75.56 3.574.981 5.314.362 1.504.868 2.981 1.447 4.39.538 1.314 1.565 1.756 2.795 1.519 2.171-.42 3.541-1.882 4.111-4.342.773-3.328.289-6.639-.127-9.946-.235-1.887-.592-3.774-.633-5.672-.081-4.169 1.931-6.729 5.513-6.844 9.154-.305 18.031-2.271 26.687-5.667 3.148-1.235 6.065-2.939 8.421-5.746 3.618-4.3 3.546-9.241-.339-13.236-4.532-4.663-9.751-5.557-15.431-3.407-.375.142-.723.4-1.212.678.285.552.525.978.728 1.425.67 1.477.285 2.339-1.149 2.623-3.536.704-6.367-3.396-5.105-7.407.547-1.735 1.569-3.049 2.926-3.937 11.722-7.659 24.493 1.183 27.008 11.733 1.09 4.568.475 8.81-1.949 12.637-2.483 3.922-5.816 6.582-9.647 8.401-7.023 3.333-14.318 5.577-21.78 7.128l-7.53 1.498c-.913.163-1.248.62-1.18 1.703.172 2.666.407 5.341.362 8.006-.041 2.466-.168 4.989-.679 7.365-1.614 7.596-8.588 10.866-13.915 8.642zm294.335-4.21c1.433-.363 2.854-.873 4.305-1.062 3.048-.4 6.119-.952 9.167-.846 4.016.142 5.739 2.628 5.201 7.265-.57 4.909-1.402 9.788-2.248 14.65-.583 3.365-1.361 6.682-2.084 10.009-.181.82-.385 1.724-1.348 1.777-1.004.053-1.737-.584-1.976-1.588-.303-1.256-.611-2.66-.435-3.905.756-5.362 1.678-10.693 2.569-16.023.33-1.966.787-3.906 1.095-5.872.294-1.877.131-2.14-1.543-1.992-1.546.136-3.093.441-4.599.872-2.668.757-5.3 1.709-7.968 2.487-.905.263-1.877.41-2.804.352-3.094-.2-4.867-3.112-3.84-6.503.538-1.771 1.379-3.469 2.293-5.036 2.166-3.716 4.491-7.301 6.68-10.997 1.117-1.882 2.112-3.869 3.093-5.856.624-1.272.466-1.803-.787-1.94-2.031-.221-4.12-.452-6.123-.142-9.172 1.42-17.557 5.231-24.906 11.849-1.316 1.183-2.428 2.686-3.554 4.127-.778.993-.692 1.992.38 2.712l7.783 5.252c.357-1.13.565-1.987.891-2.786.646-1.588 1.234-3.239 2.071-4.684.864-1.493 2.311-1.84 3.478-1.188s1.614 2.076 1.257 3.927l-7.127 37.023c-.321 1.672-.489 3.401-.937 5.026-.189.694-.895 1.629-1.406 1.666-.678.048-1.768-.478-2.026-1.114-.574-1.42-1.09-3.081-1.018-4.6.231-4.705.602-9.42 1.19-14.083.529-4.195 1.424-8.327 2.157-12.49.072-.405.122-.815.176-1.162-1.958-.399-3.853-.599-5.648-1.204-1.958-.657-3.926-1.466-5.717-2.591-4.002-2.518-5.291-7.044-3.622-11.975 1.049-3.102 2.799-5.593 4.957-7.733 4.97-4.947 10.853-7.864 17.009-10.082 6.421-2.313 12.974-3.496 19.686-1.993 1.556.347 3.129.904 4.536 1.719 2.722 1.582 3.663 4.489 2.682 7.838-.38 1.298-.887 2.592-1.524 3.738l-8.417 14.813-1.157 1.998a7.91 7.91 0 0 1 .158.347zm61.442-243.017l1.881-3.438 1.127-2.05c2.514-4.205 5.268-5.251 9.379-3.464 1.615.704 3.152 1.63 4.74 2.407 4.034 1.987 7.679.521 9.601-4.063 2.089-4.983 2.881-10.288 1.886-15.749-2.126-11.696-8.209-19.844-17.208-25.243-1.787-1.072-3.663-1.945-5.454-3.007-.796-.473-1.524-1.13-2.216-1.803-1.398-1.351-1.389-3.238.226-4.2 1.266-.752 2.826-1.367 4.206-1.246 14.065 1.204 24.959 10.713 27.451 26.279 1.429 8.937.715 17.7-2.053 26.2-1.823 5.604-5.056 9.531-10.162 11.123-2.718.847-5.4.51-8.005-.525-1.936-.773-3.83-1.719-5.698-2.708-.864-.457-1.375-.278-1.818.626-.846 1.745-1.665 3.517-2.578 5.215-3.234 6.035-7.159 6.387-11.184 1.014-1.126-1.503-2.189-3.07-3.419-4.794l-1.723 3.086c-1.981 3.69-4.333 6.981-7.589 9.236-1.117.778-2.315 1.488-3.555 1.924-2.803.988-5.386-.205-6.887-3.138-1.954-3.822-2.243-7.927-1.199-12.159.38-1.546 1.276-2.318 2.388-2.219 1.28.111 1.85 1.131 2.099 2.424.407 2.092.687 4.221 1.153 6.297.398 1.777.692 1.851 2.017.863 2.017-1.504 3.491-3.596 4.735-5.941 1.076-2.029 2.067-4.137 3.27-6.066 3.681-5.909 7.923-5.903 11.636-.037.999 1.577 1.868 3.254 2.953 5.157zM218.141 225.653l-.986-11.081-.886-9.825c-.271-4.295 1.434-6.355 5.138-6.271l6.629.446c.163.011.326.027.489.011 2.537-.252 3.708.405 4.323 3.37 1.059 5.088 2.017 10.235 2.632 15.418.724 6.092 1.072 12.248 1.506 18.383.15 2.087.122 4.2.068 6.292-.054 2.134-1.004 3.38-2.831 3.654-1.42.215-2.863.231-4.296.278l-16.014.515c-.376.016-.841.169-1.104.458-3.328 3.706-7.322 6.297-11.197 9.073-2.126 1.524-4.297 3.017-6.576 4.2-2.962 1.535-6.042 1.893-8.977-.247-2.478-1.808-3.686-4.615-4.043-7.854-.791-7.128.945-13.531 4.518-19.276 3.677-5.914 8.489-9.983 14.784-11.181 4.102-.784 8.095.252 12.007 1.682 1.524.552 3.012 1.219 4.816 1.955zm8.34-21.842c-.823.352-1.42.694-2.053.857-.986.252-1.258.82-1.19 2.013.208 3.664.217 7.344.416 11.013.222 4.09.511 8.175.882 12.249.118 1.282.113 2.381-.809 3.222-.928.847-1.877.584-2.904.147-3.618-1.54-7.213-3.201-10.913-4.431-5.517-1.84-10.668-.846-15.109 3.648-3.211 3.249-5.165 7.37-6.119 12.143-.516 2.566-.855 5.168-.185 7.786.488 1.908 1.275 2.523 2.935 2.113.995-.247 2.012-.599 2.894-1.167 3.944-2.55 7.883-5.115 11.731-7.854 1.077-.762 1.99-2.013 2.696-3.254.995-1.74 2.229-2.607 3.998-2.476.818.063 1.637.158 2.455.226l15.969 1.273c.751.057 1.515-.085 2.401-.142-.176-.516-.23-.799-.361-1.02-1.298-2.171-1.972-4.616-2.234-7.202-.326-3.222-.475-6.471-.864-9.678-.801-6.534-.819-13.284-3.636-19.466zm-25.077-40.482c.018-5.346 1.293-10.261 3.758-14.767 2.668-4.888 5.965-9.115 9.985-12.548 6.201-5.298 12.844-9.63 20.265-12.169 4.966-1.698 9.923-3.464 14.961-4.82 9.122-2.461 16.642-7.933 23.06-15.682 1.325-1.603 2.442-3.332 2.908-5.556.248-1.193.859-2.082 2.035-2.124 1.194-.042 2.08.715 2.275 1.966.239 1.509.33 3.133.104 4.637-.475 3.18-1.999 5.803-3.74 8.274-5.952 8.448-13.364 14.32-22.423 17.342l-16.086 5.462c-6.535 2.26-12.451 5.977-17.877 10.708-5.301 4.621-9.272 10.393-10.814 18.078-.167.836-.28 1.688-.357 2.545-.529 5.94 1.307 10.392 5.974 13.226 3.826 2.323 7.72 4.021 12.139 3.096.23-.047.501.142.75.221-.212.347-.357.82-.646 1.03-3.799 2.765-7.879 3.023-12.094 1.656-1.221-.394-2.424-.915-3.581-1.514-7.141-3.727-10.592-9.962-10.596-19.061zm153.044 69.663l3.623-1.335 8.262-3.344c.932-.368 1.877-.715 2.84-.93 4.134-.925 7.105 1.398 7.403 6.276.218 3.538-.194 7.134-.316 10.703l-.163 5.578c-.194 6.155 5.373 10.461 10.085 9.062 2.139-.636 3.962-1.771 5.454-3.669.746-.951 1.497-1.908 2.334-2.744.728-.725 1.632-1.046 2.474-.226.823.799.719 1.856.321 2.881-.168.431-.389.841-.624 1.23-3.279 5.393-11.153 8.858-16.679 7.344-6.232-1.709-9.615-6.361-9.787-13.794-.072-3.186.231-6.387.33-9.578.046-1.367.009-2.744.009-4.311-.827.268-1.592.426-2.293.757l-8.294 4.032c-1.709.799-3.455 1.504-5.205 2.177-.574.22-1.217.252-1.827.262-4.604.1-7.476-3.911-6.241-9.052.959-3.99 2.216-7.89 3.478-11.775l5.788-17.195c.439-1.33.679-2.749.986-4.132.267-1.204-.099-1.845-1.225-1.766-4.238.3-7.707 2.471-10.587 5.982-.213.258-.159.941-.068 1.388.19.967.597 1.892.705 2.865.15 1.372-.524 2.155-1.687 1.94-2.329-.431-4.377-1.551-5.386-4.201-.954-2.507-.325-4.878 1.244-6.728 4.69-5.525 10.447-7.996 17.086-7.234 3.378.389 5.549 3.207 5.558 7.16.009 2.586-.29 5.273-.936 7.743-1.384 5.289-3.107 10.461-4.649 15.692-.846 2.865-1.61 5.761-2.411 8.647.14.09.267.19.398.295zm129.374-52.621l-.723 10.093c-.01.142-.041.29-.028.426.095.983.425 2.092-.615 2.644-1.139.605-2.369.626-3.428-.178l-6.146-5-17.117-16.601-6.051-5.645c-3.216-2.965-3.731-5.446-1.615-9.536 3.003-5.804 6.06-11.581 9.307-17.2 1.041-1.798 2.605-3.338 4.197-4.521 2.637-1.961 5.536-1.656 8.005.399 1.764 1.467 3.419 3.344 4.631 5.425 1.574 2.702 2.885 5.688 3.921 8.727 3.387 9.919 5.45 20.196 5.662 30.967zm-28.668-21.742c8.579 6.871 15.499 15.424 22.088 24.434.108-.668.108-1.225.027-1.772l-1.642-11.149c-1.058-6.65-2.586-13.148-5.39-19.114-1.054-2.239-2.406-4.321-3.822-6.277-1.158-1.598-3.767-1.062-4.694.763l-5.622 11.112c-.325.652-.624 1.32-.945 2.003zM-3.224 214.766l-3.528 3.191c-1.23 1.031-2.46 2.108-3.799 2.907-3.415 2.035-6.657.673-8.29-3.38-1.108-2.744-1.325-5.703-1.343-8.673-.041-8.149.859-16.191 2.116-24.192l2.831-17.742c.371-2.323 1.737-3.832 3.541-3.88 1.795-.047 3.414 1.357 3.722 3.628a19.6 19.6 0 0 1 .018 5.12l-3.659 26.147c-.52 3.864-.864 7.764-1.226 11.654-.113 1.252-.018 2.529-.018 4.138.687-.521 1.108-.794 1.488-1.131l6.241-5.603c1.144-1.004 2.306-2.008 3.541-2.855 2.89-1.982 5.947-.158 6.105 3.732.109 2.708-.118 5.436-.199 8.154l-1.226 39.652c-.077 2.492-.24 4.962-1.271 7.228-.81 1.777-1.583 1.85-2.578.2-1.574-2.613-1.8-5.693-2.157-8.716-1.406-11.896-1.067-23.819-.384-35.741l.158-3.144c0-.136-.036-.278-.086-.694zm129.704-125.3l-7.657 3.023c-3.631 1.435-7.312 2.875-11.193 2.118-2.062-.405-4.187-1.167-6.001-2.35-4.124-2.686-5.079-7.517-2.713-12.275 1.338-2.697 3.247-4.789 5.399-6.592 3.288-2.749 6.816-5.067 10.66-6.492 4.721-1.751 9.511-3.349 14.363-4.51 4.74-1.135 9.556-1.036 14.296 1.319l1.637-8.863c.321-1.824.57-3.664.855-5.493.171-1.099.502-2.092 1.65-2.113 1.199-.021 1.778.967 1.741 2.129-.09 2.944-.248 5.893-.592 8.805-.412 3.496-1.045 6.955-1.587 10.429-.385 2.455-2.402 3.764-4.016 2.287-3.207-2.944-6.811-2.939-10.443-2.213-8.945 1.793-17.239 5.535-24.548 11.922-1.076.941-2.08 2.024-3.007 3.165-1.085 1.335-.972 1.777.461 2.644 2.081 1.262 4.36 1.74 6.589 1.151 5.115-1.351 10.212-2.839 15.241-4.558 2.691-.92 4.45.21 4.364 3.527-.068 2.576-.312 5.141-.475 7.712l-.09 1.84c.538-.337.927-.541 1.28-.804 1.727-1.288 3.419-2.644 5.178-3.874 2.148-1.498 4.079-.72 4.925 2.013.525 1.703.828 3.496 1.28 5.231.534 2.055.959 2.57 2.808 2.46 2.537-.158 5.056-.641 7.584-.899.968-.1 1.995-.158 2.913.121.547.168 1.235.967 1.325 1.588s-.33 1.587-.791 2.029c-.602.583-1.439.956-2.221 1.146-2.569.631-5.146 1.214-7.742 1.661-1.036.179-2.139.063-3.189-.105-2.532-.405-4.319-2.003-5.182-4.837-.426-1.382-.747-2.807-1.172-4.431l-2.804 2.087c-1.225.873-2.419 1.829-3.708 2.544-3.03 1.682-5.626-.052-5.798-3.979-.099-2.318.186-4.663.299-6.997.013-.426.04-.846.081-1.566zm380.149 111.827c-1.121-4.72-2.419-9.341-3.283-14.067-.864-4.741-1.289-9.588-1.927-14.54-.271.226-.466.368-.633.536-2.962 3.044-6.476 2.939-9.212-.42-2.212-2.718-3.776-5.977-4.536-9.568-.936-4.437-1.452-8.994-2.212-13.484l-2.066-11.338c-.163-.884-.385-1.767-.426-2.66-.063-1.283.403-2.34 1.398-2.97.986-.626 2.112-.663 2.899.194.927 1.02 1.94 2.229 2.311 3.585 1.022 3.711 1.904 7.502 2.51 11.334.823 5.204 1.144 10.524 2.781 15.528.511 1.556 1.135 3.065 1.773 4.553.443 1.035 1.094 1.125 1.682.142 1.049-1.767 2.076-3.549 3.066-5.362.905-1.651 1.773-3.412 3.813-2.823 1.994.578 2.216 2.597 2.379 4.526l2.066 25.238c.389 4.489 1.475 8.795 3.012 12.937.706 1.903.073 3.48-1.845 3.895-2.862.626-5.757 1.078-8.642 1.572-5.45.93-10.904 1.866-16.109 4.053-1.958.825-3.862 1.892-5.685 3.065-2.361 1.514-4.124 3.774-5.242 6.65l-2.849 7.406c-.108.268-.859.526-1.008.374-.606-.61-1.235-1.288-1.597-2.098-1.067-2.392-1.099-4.978-.646-7.549.285-1.629.737-3.227 1.194-4.81 1.533-5.288 4.662-8.878 9.253-10.203 4.323-1.246 8.773-2.029 13.21-2.597 4.649-.594 9.343-.694 14.019-1.014.272-.027.543-.079.552-.085zm-9.678 221.853l2.058-2.791c.805-.941 1.623-1.929 2.591-2.597 1.714-1.193 3.315-.494 4.174 1.593.104.257.231.52.272.794.447 2.928 2.197 4.126 4.486 4.767 2.134.6 4.242.521 6.349 0 1.416-.352 1.814-1.098 1.619-2.801-.334-2.944-1.895-5.031-3.943-6.429-1.963-1.336-4.174-2.182-6.282-3.223-.714-.352-1.497-.552-2.175-.972-1.149-.715-1.692-2.124-1.484-3.486.222-1.44 1.199-2.481 2.547-2.712 8.163-1.409 16.317-2.86 24.222-5.735.113-.042.24-.021.534-.037v2.518 2.781l-14.92 3.911 1.434 1.24c3.925 3.517 5.499 9.326 3.889 14.278-.565 1.735-1.52 3.075-2.949 3.869-4.852 2.691-9.601 2.108-14.11-1.009-1.063-.736-1.759-2.177-2.74-3.444l-3.338 4.374c-1.004 1.388-1.904 2.881-2.903 4.269-.52.725-1.095 1.461-1.769 1.955-1.646 1.214-3.595.279-4.056-1.929-.181-.862-.181-1.798-.159-2.692.186-6.345 1.764-12.295 3.786-18.13l3.595-10.803c.244-.789.041-1.761.045-2.65-.71.326-1.524.489-2.116.999-2.745 2.355-4.889 5.315-6.603 8.769-5.124 10.334-6.928 21.547-6.734 33.317.009.515.167 1.031.176 1.546.014.631.141 1.519-.149 1.84-.353.389-1.293.636-1.632.357-.837-.683-1.705-1.561-2.149-2.597-1.98-4.61-2.482-9.557-2.012-14.645.846-9.126 3.799-17.348 8.1-24.954 2.302-4.064 5.386-7.123 9.37-8.685 1.673-.651 3.519-.83 5.3-.967 1.185-.089 1.773 1.046 2.063 2.276.759 3.27.628 6.54-.159 9.762l-4.151 16.48c-.122.484-.177.983-.258 1.478a2.41 2.41 0 0 0 .181.115zM381.823 59.633l.447-4.116c.077-.662.118-1.34.276-1.977.276-1.109.891-1.882 1.95-1.808 1.044.074 1.736.873 1.736 2.04 0 2.518.077 5.089-.307 7.549-.823 5.252-1.904 10.451-2.917 15.66-.15.783-.439 1.54-.756 2.26-.14.321-.547.746-.764.699-.262-.058-.615-.541-.647-.878-.126-1.325-.248-2.665-.176-3.99.172-3.191.452-6.377.678-9.562.023-.326.005-.652.005-1.151-.597.142-1.135.305-1.682.4-5.36.894-10.601.331-15.612-2.055-7.39-3.522-10.365-10.461-8.299-19.424.588-2.555 1.366-5.194 2.605-7.381 7.186-12.669 17-19.913 30.468-18.646 5.983.563 11.207 3.233 14.752 9.31 4.523 7.749 3.912 17.253-1.84 23.813-2.031 2.313-4.514 4.111-6.843 6.056-.606.505-.918.978-1.117 1.85l-3.93 16.533c-.176.715-.556 1.388-.941 1.998-.66 1.046-1.623.946-1.949-.294-.33-1.256-.601-2.639-.506-3.922l1.696-19.355c.443-3.974 2.767-4.81 5.445-2.092 2.483-2.229 5.033-4.4 6.612-7.712 3.446-7.244.719-16.165-5.916-19.298-4.269-2.019-8.706-2.276-13.056-.736-8.493 2.996-14.974 8.994-18.8 18.441-.787 1.945-1.198 4.169-1.443 6.319-.339 2.986.697 5.451 2.949 7.044 1.045.741 2.148 1.446 3.306 1.877 4.69 1.735 9.538 2.345 14.576 2.55zM160.462 216.827c.081-9.909 1.356-19.676 2.677-29.438l1.841-14.298c.226-1.866.841-3.407 2.338-4.274 5.219-3.033 10.496-5.919 16.204-7.491 1.438-.394 3.003-.194 4.509-.258.366-.015.737.043 1.099-.005 2.261-.315 3.681 1.004 3.654 3.685-.018 2.234-.154 4.495-.462 6.697l-3.776 26.106c-.086.604-.267 1.261-.158 1.829.33 1.719-.366 2.734-1.438 3.764-4.622 4.431-9.307 8.795-13.73 13.484-2.316 2.455-4.125 5.546-6.196 8.316-.697.93-1.393 1.924-2.257 2.597-1.718 1.34-3.333.62-3.69-1.751-.376-2.476-.43-5.02-.611-7.533-.031-.473-.004-.951-.004-1.43zm25.615-49.487l-13.31 5.567c-.303.131-.588.804-.61 1.246-.163 2.896.022 5.856-.412 8.689-1.334 8.732-2.903 17.421-4.373 26.126l-1.144 7.024c.285-.142.38-.153.43-.216 4.712-6.114 10.505-10.803 15.787-16.159.34-.347.629-1.02.62-1.53-.095-6.997.665-13.904 1.565-20.796l1.447-9.951zm286.145 164.359c5.509.236 9.932 2.076 13.464 6.319 1.393 1.676 2.085 3.558 2.193 6.103.145 3.459-.687 6.539-1.669 9.567-2.596 7.985-5.381 15.886-8.172 23.782-.556 1.572-1.388 3.038-2.238 4.431-.982 1.609-2.121 1.661-3.465.468-.294-.257-.723-.405-1.099-.431-11.129-.72-19.541-10.198-20.07-23.104-.534-13.021 7.109-24.407 17.768-26.688 1.249-.258 2.524-.347 3.288-.447zm-.031 44.767l10.021-32.608c-5.25-4.605-13.128-5.183-18.668.936-5.549 6.129-6.504 17.079-2.063 24.428 2.601 4.321 6.056 7.039 10.71 7.244z"/><path d="M139.559.042c-5.59 11.907-9.791 24.192-10.981 37.66-.081.915-.009 1.85-.009 2.781l.579.357c.412-.646.787-1.33 1.239-1.934 2.809-3.732 5.088-7.848 6.73-12.432l6.132-17.043c.19-.526.412-1.046.692-1.514 1.049-1.766 2.732-2.46 4.301-1.824 1.51.615 2.582 2.502 2.356 4.563-.145 1.304-.515 2.602-.945 3.827-.864 2.46-1.836 4.873-2.836 7.486 3.153.221 6.119.058 9.05-.636.321-.079.633-.683.8-1.125 2.375-6.108 4.242-12.417 5.427-18.982.068-.368.172-.725.267-1.125h5.477c-.584 2.439-1.013 4.826-1.728 7.097l-5.454 16.564c-.547 1.656-1.623 2.486-3.134 2.508l-11.559.11c-.864-.01-1.041.499-1.271 1.167-2.117 6.145-5.052 11.686-9.086 16.385-1.185 1.377-2.446 2.728-3.848 3.774-3.623 2.702-7.444 1.12-8.959-3.58-.887-2.754-.932-5.635-.615-8.49 1.365-12.359 5.218-23.703 10.446-34.49.421-.867.932-1.162 1.769-1.125 1.705.074 3.414.021 5.16.021zM80.31 219.466l-1.32.589-31.318 15.786-6.766 3.096c-1.85.81-3.161.579-3.853-.562-.719-1.183-.448-3.096.769-4.726 1.94-2.597 4.278-4.658 6.951-6.066 3.509-1.856 7.082-3.58 10.691-5.157 7.887-3.449 15.779-6.866 23.232-11.476 1.144-.71 2.252-1.577 3.22-2.581 2.677-2.77 6.53-1.803 7.702 2.145.389 1.314.493 2.817.439 4.221-.308 7.848.407 15.534 2.311 23.088.371 1.477.583 3.133.416 4.636-.393 3.486-3.717 4.842-5.965 2.492-.805-.841-1.429-1.971-1.976-3.075-2.397-4.863-3.324-10.24-3.93-15.713-.231-2.165-.389-4.342-.602-6.697zM23.314 408.653c.543 0 1.189-.215 1.605.047.755.479 1.185 1.231.968 2.445-1.28 7.26-7.937 14.135-14.327 14.461-5.205.268-8.932-2.765-11.483-7.817-2.071-4.1-2.79-8.673-2.664-13.362.208-7.665 2.438-14.567 6.322-20.723 1.854-2.938 4.301-4.973 7.498-5.525 2.22-.378 3.233.51 4.654 2.513 1.366 1.924 1.447 4.048 1.682 6.256.719 6.739 1.66 13.42 4.269 19.602.357.847.814 1.635 1.226 2.45a5.5 5.5 0 0 0 .249-.347zm-3.003 4.7v-.389c-4.174-1.63-5.992-5.52-6.937-10.025-.647-3.086-1.027-6.282-1.253-9.452-.208-2.907-.045-5.851-.045-8.779l-.57-.283c-1.018 1.314-2.157 2.528-3.021 3.968-1.438 2.392-1.999 5.199-2.388 8.049-.733 5.393-.077 10.571 1.904 15.497 1.483 3.695 3.971 4.952 7.299 3.721 1.71-.63 3.347-1.529 5.011-2.307zm214.613-66.236l-2.931 3.643c-.954 1.03-1.967 2.061-3.097 2.791-3.071 1.982-6.44 1.073-8.706-2.176-1.569-2.25-2.216-4.962-2.899-7.675-.412-1.635-.923-3.243-1.492-4.81-.584-1.608-.801-3.217-.276-4.868 1.216-3.8 5.413-4.873 7.86-1.776 1.144 1.445 1.773 3.48 2.478 5.33.439 1.146.574 2.45.846 3.68l.425.357c.285-.515.493-1.135.873-1.53 1.474-1.508 2.876-3.19 4.536-4.352 3.939-2.755 7.932-1.067 9.624 3.89.492 1.451.795 2.991 1.243 4.699.466-.394.918-.683 1.275-1.093l4.767-5.593c4.518-5.194 7.928-5.068 12.238.363a247.51 247.51 0 0 0 5.63 6.812c.661.773 1.47 1.367 2.18 2.082.317.321.846.831.778 1.083-.113.447-.552.909-.95 1.12-2.32 1.214-4.68 1.119-6.887-.263-2.162-1.356-4.256-2.881-6.278-4.5-.836-.673-1.252-.631-1.917.184-1.583 1.934-3.17 3.89-4.911 5.625-1.294 1.293-2.737 2.481-4.274 3.322-3.152 1.724-6.223.673-8.258-2.623-.683-1.109-1.199-2.36-1.877-3.722zm142.978-249.13l5.612-7.607c.357-.463 1.085-.967 1.497-.836.493.158 1.162.988 1.153 1.514-.013.983-.285 2.092-.76 2.907-1.058 1.808-2.333 3.449-3.477 5.194l-2.578 4.195c-1.348 2.223-3.32 2.197-4.799.126-2.641-3.701-5.381-7.307-8.117-10.918-.213-.279-.729-.442-1.054-.373l-27.248 5.909c-4.943 1.172-9.782 2.923-14.675 4.368-1.353.4-2.732.757-4.116.894-.99.1-2.098.063-2.994-.363-2.279-1.088-2.813-4.499-1.076-6.555.525-.62 1.244-1.156 1.958-1.404 5.825-2.019 11.587-4.431 17.525-5.809 8.81-2.04 17.75-3.328 26.637-4.936l4.256-.804c2.483-.505 3.943.342 5.314 2.755 2.22 3.885 4.54 7.691 6.942 11.744zM317.07 378.19l-4.066 3.417c-1.99 1.729-4.034 3.291-6.584 3.68-5.441.83-10.429-4.542-10.099-10.898.09-1.713.841-2.922 2.085-3.364 1.253-.447 2.632.121 3.423 1.551.484.878.801 1.876 1.23 2.796.873 1.877 2.108 2.355 3.686 1.262 1.158-.799 2.176-1.871 3.306-2.739 1.845-1.409 3.636-2.996 5.626-4.063 3.514-1.888 6.454-.537 8.226 3.485.561 1.267 1 2.607 1.574 4.127l1.013-1.031c1.452-1.477 2.804-3.112 4.369-4.4 3.582-2.938 7.123-2.029 9.497 2.25 1.19 2.15 1.732 2.25 3.41.515.859-.888 1.624-1.903 2.492-2.77 2.279-2.271 4.934-2.276 7.109.137 2.818 3.133 4.803 6.886 5.617 11.375.272 1.483-.077 1.877-1.329 1.509-2.764-.809-4.939-2.712-6.906-5.025-1.276-1.504-1.253-1.383-2.777-.3-1.673 1.188-3.374 2.402-5.187 3.217-2.524 1.13-5.043.615-7.3-1.104-.764-.583-1.257-.515-1.94.1-1.46 1.309-2.939 2.613-4.5 3.759-3.672 2.702-6.761 2.008-9.284-2.124-.977-1.619-1.728-3.428-2.691-5.362zm-29.563-16.37l2.51-3.238 5.038-5.225c2.406-2.045 4.807-1.546 6.792 1.046l.548.773c1.632 2.392 2.5 2.739 4.974 1.629 1.294-.578 2.51-1.408 3.745-2.155 1.542-.93 3.107-1.361 4.667-.158s1.958 3.107 1.678 5.057c-.24 1.662-.841 3.265-1.361 4.858-.258.783-.842.93-1.38.331l-2.134-2.618-1.384.857c-2.329 1.424-4.762 2.329-7.444 2.008-3.057-.363-5.26-2.224-6.847-5.499l-2.157 2.466-3.917 5.146c-2.754 3.238-5.915 3.223-8.633-.058-1.104-1.33-2.035-2.875-2.94-4.4-.588-.988-1.085-1.025-1.89-.362-1.606 1.324-3.193 2.728-4.93 3.79-2.017 1.23-4.12 2.428-6.308 3.101-3.677 1.125-7.137-.683-8.788-4.647-1.094-2.628-1.809-5.519-2.383-8.379-.497-2.471 1.841-4.432 3.849-3.238.949.562 1.736 1.703 2.36 2.765.733 1.251 1.203 2.707 1.809 4.058.511 1.13 1.316 1.461 2.262.82l4.038-2.991 5.296-4.421c4.455-3.091 8.235-1.845 10.754 3.433.783 1.614 1.393 3.343 2.176 5.251zM14.78 257.079l3.378 1.104c.746.252 1.52.441 2.23.793 1.854.931 2.781 2.765 2.419 5.068-.24 1.535-.615 3.086-1.167 4.505-1.868 4.784-2.311 9.804-2.162 14.971a212.09 212.09 0 0 1 .068 9.594c-.018 1.015-.28 2.087-.66 3.007-.61 1.493-1.379 1.551-2.175.205-.457-.773-.864-1.656-1.067-2.555-2.139-9.583-2.22-18.977 2.076-27.924.357-.741.647-1.524 1.072-2.544l-2.46-.258c-1.185-.147-2.383-.21-3.546-.483-3.039-.721-4.635-3.591-4.029-7.134.47-2.744 1.633-5.099 3.188-7.175 1.646-2.193 3.482-4.206 5.061-6.461 1.416-2.024 2.691-4.2 3.822-6.45.425-.841.271-2.082.38-3.139-.828.058-1.696-.042-2.478.211-2.166.683-4.337 1.324-6.06 3.269-1.217 1.373-3.062 1.304-4.468.232-1.488-1.13-2.162-3.312-1.669-5.43a6.86 6.86 0 0 1 2.623-4.027c3.835-2.881 8.086-4.058 12.586-3.38 4.731.715 7.525 5.877 6.241 11.686-.57 2.575-1.605 5.141-2.89 7.354-1.737 2.991-3.935 5.619-5.906 8.432l-4.405 6.529zm82.313 191.957l6.096-4.784 2.18-1.871c1.049-.852 2.184-1.136 3.365-.426 1.189.715 1.601 1.977 1.605 3.459 0 .326 0 .657.258 1.141.488-.936 1.09-1.814 1.447-2.813.964-2.675 2.659-3.485 5.083-3.506l36.972-.562 5.915-.048c.651.005 1.316.116 1.945.31 1.198.368 1.99 1.535 2.062 2.892s-.574 2.628-1.759 3.133c-.76.32-1.592.515-2.402.557l-15.512.694-25.638.147c-1.198 0-1.99.41-2.704 1.503-.991 1.52-2.085 2.955-3.188 4.364a10.11 10.11 0 0 1-1.773 1.766c-1.945 1.472-4.125.846-5.273-1.504-.398-.814-.652-1.724-1-2.665l-3.821 2.671c-1.764.993-3.555 2.06-5.441 2.591-3.65 1.031-5.961-1.934-4.712-6.024.9-2.954 2.162-5.761 3.292-8.621.167-.421.452-.804.746-1.125.8-.878 1.75-1.062 2.732-.494.95.552 1.37 1.572 1.18 2.749-.163 1.015-.529 1.998-.85 2.97l-1.126 3.133.321.363z"/><path d="M12.817 54.287l10.628 1.046c.877.1 1.768.463 2.582.888 1.587.836 2.383 2.602 2.058 4.268-.344 1.761-1.56 2.681-3.451 2.707-4.803.058-9.615-.063-14.399.273-5.214.368-10.361 1.435-15.263 3.674-2.207 1.009-4.247 2.313-5.599 4.705-1.18 2.082-1.126 2.723.809 3.717 2.361 1.209 4.825 2.139 7.231 3.228.914.41 1.863.799 2.668 1.419 1.045.799 1.461 2.061 1.126 3.512-.321 1.388-1.185 2.197-2.388 2.339-.846.1-1.764.142-2.564-.126-3.428-1.146-6.91-2.166-10.212-3.706-5.015-2.334-6.616-7.013-4.771-12.932 1.542-4.947 4.541-8.327 8.57-10.535 4.563-2.508 9.461-3.47 14.431-3.974 2.573-.263 5.165-.315 8.543-.505zm74.72 331.394l1.425-15.313c-.014 0-.285-.047-.547.005l-17.855 3.59c-.954.184-1.325.715-1.637 1.746l-3.062 9.047c-.362.988-.968 1.887-1.565 2.723-.66.92-1.565 1.277-2.551.741-.927-.51-1.293-1.504-1.144-2.623.172-1.262.416-2.534.782-3.738l2.239-6.823c.163-.51.249-1.125.172-1.656-.33-2.287.145-3.701 2.035-4.589 1.624-.762 3.351-1.341 5.074-1.677l16.2-2.891c1.66-.305 3.288-.847 4.925-1.294 1.425-.389 2.799-.462 3.88.936 1.076 1.383.886 2.939.466 4.579l-3.532 14.304c-.113.483.081 1.088.204 1.613l2.031 8.974c.14.667.032 1.424-.036 2.129-.1 1.051-.62 1.987-1.501 1.95-.697-.026-1.538-.578-2.013-1.209-.547-.72-.814-1.756-1.099-2.697-.267-.883-.615-1.083-1.447-.925l-16.082 2.839a8.69 8.69 0 0 1-2.334.068c-1.556-.163-2.614-1.356-2.731-2.949-.122-1.614.706-3.028 2.275-3.396 3.984-.936 7.982-1.777 11.984-2.591 1.89-.374 3.803-.61 5.445-.873zM-14.856 142.165c6.304.321 12.55-.389 18.764-1.561.687-.132 1.388-.232 2.08-.216 1.339.026 2.311.983 2.456 2.292.14 1.277-.511 2.487-1.809 2.828-2.347.61-4.717 1.162-7.105 1.514l-21.156 2.886c-1.067.137-1.334.605-1.42 1.756-.868 11.723-3.026 23.188-5.278 34.632-.208 1.046-.574 2.118-1.094 3.001-1.049 1.782-2.913 1.551-3.559-.467-.362-1.131-.547-2.44-.466-3.638l1.533-20.943c.421-4.984 1-9.951 1.538-14.919.506-4.694 2.573-6.976 6.653-7.139 2.949-.121 5.906-.026 8.864-.026zM-1.8.126h6.463c.615 2.96.38 5.919-.05 8.805l-3.179 19.25-.76 4.053c-.62 2.36-2.221 3.559-4.224 3.648l-8.312.668c-5.413.789-10.809 1.772-16.213 2.66-1.646.268-2.813-1.298-2.392-3.27.425-1.998 1.538-3.459 3.184-4.064 1.823-.668 3.726-1.114 5.626-1.424 4.672-.768 9.357-1.398 14.038-2.092.656-.095 1.239-.189 1.42-1.209l3.871-21.863c.289-1.677.353-3.396.529-5.162zm68.24 247.438l-3.532 1.692-19.668 9.915c-1.501.746-3.089 1.298-4.676 1.766-.855.252-1.8.263-2.682.147-1.253-.163-2.175-1.309-2.288-2.612-.127-1.467.479-2.471 1.574-3.107.403-.231.832-.41 1.253-.594l8.534-3.732c7.679-3.212 15.028-7.197 21.952-12.238 2.818-2.051 5.368-1.083 6.766 2.434 1.311 3.301 1.746 6.854 2.049 10.424.176 2.092.298 4.19.389 6.287.036.799.009 1.64-.158 2.413-.402 1.866-1.429 3.112-3.089 3.475s-3.084-.311-3.944-1.94c-.561-1.057-.877-2.36-1.054-3.601-.412-2.87-.669-5.772-1.008-8.653-.086-.646-.258-1.272-.416-2.076zm352.96-12.128c-1.208 0-2.352.1-3.482-.021-3.528-.373-5.531-3.164-5.287-7.28a9.85 9.85 0 0 1 .181-1.414c1.112-5.383 6.295-13.395 12.405-13.463 5.273-.063 13.364 3.622 14.39 12.627.466 4.1-.52 7.775-2.826 10.892-2.067 2.791-4.731 4.573-7.801 5.414-3.732 1.025-6.599-1.198-7.358-5.556l-.222-1.199zm13.165-6.855c-.303-1.072-.462-2.249-.941-3.206-1.569-3.112-3.998-5.005-6.924-6.035-.42-.147-1.09.068-1.461.4-1.307 1.151-2.69 2.265-3.744 3.695-1.04 1.414-1.75 3.17-2.528 4.826-.362.778-.014 1.277.741 1.34 1.601.137 3.211.379 4.482-1.209.272-.336.665-.557 1.031-.767 1.38-.778 2.759-.473 3.419.73.656 1.194.353 2.55-.936 3.696-1.144 1.014-1.284 2.355-1.085 3.843.117.867.601 1.172 1.334 1.077 3.179-.394 6.422-4.573 6.612-8.39zm4.092 217.811l18.353-.011c2.84-.016 4.929 2.134 4.875 5.12-.054 2.923-2.148 4.973-4.921 4.936l-36.215-.441c-.923-.011-1.909-.158-2.75-.552-1.637-.773-2.469-2.644-2.279-4.631.185-1.935 1.415-3.522 3.111-3.959.439-.11.895-.157 1.343-.157l18.483-.006v-.299zM238.899 30.474c-.013-2.607-.343-4.92.706-7.149.886-1.882 2.125-3.059 3.894-2.902 1.727.152 3.523.536 5.114 1.309 4.455 2.145 8.236 5.504 11.637 9.447.343.399.646.873.895 1.361 1.013 1.977.633 3.943-1.153 4.947-1.841 1.036-3.785 1.824-5.703 2.67l-9.221 4c-.909.41-1.759 1.02-2.596 1.614-1.429 1.02-2.89 1.067-4.021.042s-1.569-2.728-.954-4.531c1.23-3.585 1.538-7.296 1.402-10.808zm255.782 208.158c-2.017.852-4.034 1.067-5.938-.425-2.149-1.683-3.437-3.99-3.247-7.097.226-3.643 1.745-6.513 4.224-8.695 3.21-2.833 6.955-4.116 10.871-4.552 3.795-.421 7.621-.426 11.433-.631 1.108-.058 2.216-.11 3.315-.273 2.655-.395 4.188-2.082 4.468-5.168.127-1.388-.23-2.823-.23-4.237 0-.788.068-1.908.493-2.276.551-.478 1.56-.652 2.243-.421 1.42.474 2.048 1.961 2.446 3.517 1.61 6.345-1.528 13.584-6.987 15.723-1.84.72-3.839 1.01-5.784 1.236l-14.214 1.435c-1.402.173-2.763.857-4.115 1.414-.566.231-1.086.688-1.552 1.135-2.46 2.366-2.315 5.21.371 7.244.764.578 1.569 1.078 2.356 1.614a16.33 16.33 0 0 0-.153.457zm.583-238.59h7.34l3.817-.026c1.085-.105 1.592.431 2.053 1.498 3.537 8.195 1.687 19.818-4.17 25.958-4.323 4.537-9.361 3.979-12.893-1.44-.57-.873-1.086-1.798-1.615-2.702-.583-.988-1.271-1.214-2.012-.284-.914 1.151-1.845 2.308-2.619 3.58-.285.468-.086 1.298-.221 1.929-.113.526-.281 1.235-.62 1.456-1.42.904-3.315.279-4.047-1.414-.403-.936-.724-2.14-.593-3.133.565-4.289 2.501-7.559 6.006-9.262 2.365-1.151 4.667-.61 6.503 1.461 1.04 1.172 1.809 2.686 2.655 4.084.402.657.66 1.43 1.058 2.097 1.285 2.155 2.926 2.313 4.532.473 3.36-3.853 4.301-9.962 2.293-14.961-1.47-3.653-3.695-6.508-6.712-8.521-.249-.168-.493-.342-.732-.52-.023-.016-.009-.084-.023-.273zM98.776 24.723l-2.804 2.76c-1.678 1.524-3.283 3.222-5.115 4.458-4.491 3.023-9.058 1.64-11.605-3.606-1.176-2.418-1.922-5.152-2.673-7.812-.525-1.856.204-3.538 1.492-4.258 1.316-.731 2.971-.263 3.925 1.314.633 1.041 1.049 2.255 1.542 3.406.507 1.199.913 2.46 1.497 3.601.71 1.398 1.515 1.703 2.691.857 1.388-.999 2.664-2.213 3.944-3.401 1.764-1.64 3.396-3.485 5.237-4.989 2.971-2.429 5.725-1.598 7.299 2.218.882 2.14 1.447 4.458 2.098 6.718.783 2.728 1.597 5.378 3.46 7.475 1.284 1.451.461 3.816-1.434 4.4-1.876.578-3.613-.053-4.848-1.645-1.103-1.425-1.999-3.144-2.695-4.889-.814-2.055-1.316-4.279-2.013-6.608zm132.2 147.059c-2.013-5.946-.801-11.318 1.8-16.454.316-.626.877-1.146 1.415-1.556.887-.678 1.873-.768 2.777-.016.936.778.968 1.861.692 3.081l-2.125 9.704c-.656 2.754.135 4.852 1.926 6.592.375.362.778.678 1.185 1.03-1.827 1.856-4.382 1.288-6.879-1.256-4.382 2.533-9.415 1.95-11.821-4.127-.656-1.651-1.104-3.548-1.176-5.357-.262-6.844 1.361-13.121 4.757-18.735.629-1.041 1.425-1.987 2.275-2.791 1.122-1.062 2.501-1.041 3.419-.179.905.852 1.104 2.15.493 3.774-2.193 5.846-3.383 11.96-3.554 18.326-.114 4.153 1.383 6.534 4.816 7.964zm-53.704 98.775c-4.405-.074-7.562-2.597-9.692-6.902-2.65-5.357-2.93-11.145-1.949-17.074 1.547-9.368 5.459-17.3 10.94-24.287.624-.799 1.04-1.824 1.664-2.617.764-.968 1.547-2.009 2.501-2.655 1.578-1.067 3.383.263 3.333 2.386a6.36 6.36 0 0 1-.638 2.566c-.972 1.934-2.012 3.827-3.134 5.651-4.377 7.112-7.62 14.803-8.986 23.471-.683 4.327-.19 8.438 1.452 12.396 1.112 2.681 2.912 4.426 5.196 5.625.403.21.719.641 1.076.967l-1.401.468c-.109.031-.24.005-.362.005zM261.38 74.053l-2.329 3.138c-.891 1.067-1.967 1.819-3.31 1.288-1.312-.52-1.651-1.845-1.841-3.28l-.791-5.788c-.068-.915.072-2.055.502-2.781.746-1.246 2.388-.925 3.08.515.393.82.597 1.766.927 2.791l.411-1.141c1.022-2.818 3.36-3.438 5.4-1.461.683.662 1.407 1.288 2.175 1.798.299.195.905.2 1.131-.031.203-.205.217-.925.072-1.288-.438-1.12-.841-2.329-1.524-3.233-3.31-4.379-7.082-7.943-12.269-8.873-1.805-.326-2.564-2.592-1.312-4.221a5.28 5.28 0 0 1 2.791-1.829c2.939-.705 5.748.047 8.226 1.976 4.156 3.238 7.222 7.596 9.262 12.906.348.904.547 1.903.687 2.886.71 4.936-2.478 8.842-6.752 8.143-1.501-.252-2.953-.978-4.536-1.514zM21.758 18.026c4.966.079 9.434 4.237 10.438 9.725.461 2.529.018 4.931-1.198 6.965-1.158 1.935-2.451 3.937-4.07 5.273-2.759 2.266-5.789 4.095-8.769 5.977-1.031.647-2.198.442-3.039-.662-.841-1.099-.755-2.35-.253-3.611.122-.305.298-.589.357-.909.384-2.182.914-4.353 1.054-6.555.149-2.308-.705-4.242-2.478-5.556-.714-.531-1.397-1.199-1.945-1.95-1.058-1.451-.742-3.002.565-4.158 2.275-2.008 4.586-3.869 7.512-4.316.601-.089 1.217-.147 1.827-.221zm-.809 20.249c2.148-1.519 4.011-3.028 5.468-5.125 2.243-3.217 1.7-6.392-1.429-8.416-1.483-.962-3.089-1.23-4.758-1.02-.724.089-1.443.284-2.37.468 3.681 4.053 3.631 8.874 3.089 14.093zm48.317 395.374l.013 5.441c.095 2.497-.841 4.568-2.053 6.429-.448.689-1.434 1.193-2.207 1.251a13.9 13.9 0 0 1-7.575-1.54c-4.188-2.182-5.915-6.645-4.378-11.696 1.705-5.594 5.364-8.99 9.877-11.329.448-.231.914-.42 1.357-.667 1.868-1.046 3.731-.19 4.287 2.15.326 1.366.366 2.823.52 4.237.041.378.045.762.05 1.146v4.578h.109zm-6.879-3.495c-1.741 2.002-3.238 3.879-3.812 6.434-.158.704 0 1.924.416 2.302.909.826 2.08 1.262 3.392 1.993l.005-10.729zm-78.749 5.714c-.05-3.433 2.37-4.921 4.934-3.817 2.641 1.136 5.373 2.024 8.118 2.776 1.66.452 3.414.462 5.128.615 1.841.163 3.13 2.428 2.153 4.221-2.551 4.668-5.201 9.268-7.96 13.773-1.117 1.824-2.062 1.834-3.889 1.156-2.107-.783-3.401-2.523-4.17-4.752-1.253-3.627-2.347-7.328-3.491-11.008-.353-1.119-.633-2.265-.823-2.964zM54.519.047l8.733.026c.253.005.602.31.742.584 2.881 5.551 4.238 11.502 3.075 17.957-1.393 7.749-6.662 12.858-13.699 13.542-3.356.326-6.567-.242-9.56-2.066-1.547-.941-2.795-2.266-2.899-4.474-.032-.678.045-1.53.375-2.029.407-.61 1.122-1.251 1.728-1.288.534-.032 1.126.72 1.637 1.204.547.52.945 1.377 1.556 1.677 3.139 1.535 6.372 1.719 9.633.499 3.496-1.304 5.029-4.416 5.513-8.358.488-3.974-.425-7.58-2.492-10.776-1.339-2.092-2.759-4.137-4.341-6.497zm118.533 102.061l10.42-1.12 3.93-.241c1.393.031 2.189.83 2.315 2.05.127 1.246-.438 2.276-1.768 2.697-1.537.488-3.12.788-4.699 1.098l-11.414 2.171c-.163.032-.321.09-.48.121-1.578.305-3.161.5-4.31-1.172-1.126-1.635-.583-3.317.018-4.994l2.945-8.485c.194-.568.284-1.178.483-2.034-.854-.147-1.6-.384-2.347-.389-2.053-.021-4.102.095-6.155.079-.855-.005-1.736-.058-2.55-.326-1.172-.384-1.85-1.404-1.922-2.844-.077-1.504.556-2.576 1.709-3.18.475-.252 1.036-.452 1.542-.41 3.351.247 6.702.526 10.045.899.791.089 1.587.494 2.324.904 1.949 1.083 2.985 3.023 2.533 5.478-.502 2.734-1.366 5.378-2.085 8.059-.136.484-.312.957-.534 1.64zm201.462-60.721c3.261-.762 6.418-1.882 9.249-4 .434-.326.692-1.03.936-1.614.981-2.365 3.157-2.828 4.749-.967l3.794 4.484c.258.305.511.626.719.978.764 1.288.764 2.802.023 3.701-.783.951-1.922.962-3.139-.037-.932-.767-1.827-1.603-2.745-2.408-4.957 4.069-10.519 6.087-16.38 7.102-1.149.2-2.402.147-3.523-.174-2.311-.668-3.333-3.312-2.384-5.861.29-.778.706-1.519 1.163-2.176 2.939-4.232 6.548-7.465 10.867-9.594.488-.242 1.058-.589 1.52-.478.737.174 1.587.505 2.071 1.109.624.783.33 1.856-.308 2.581-.877.999-1.84 1.892-2.767 2.839l-4.039 4.116c.063.121.131.258.194.399zm-27.528 300l-.031 5.714c-.059 1.167-.254 2.408-.688 3.443-1.126 2.697-4.066 3.459-6.06 1.472-1.999-1.997-4.238-3.385-6.639-4.563-2.899-1.424-3.659-4.336-1.863-7.306 1.026-1.693 2.279-3.212 3.514-4.716l4.138-4.689c1.176-1.335 2.252-2.886 4.224-2.013 2.618 1.156 3.799 2.817 3.758 5.646l-.353 7.012zm86.881-157.993c-.185.373-.425 1.246-.932 1.787-1.171 1.257-2.396 2.481-3.731 3.485l-12.803 9.415-19.817 14.719c-1.14.842-2.329 1.614-3.546 2.303-.646.368-1.424.767-2.094.668s-1.546-.631-1.836-1.278c-.257-.568-.04-1.74.339-2.308.616-.914 1.479-1.656 2.339-2.292 5.327-3.958 10.6-8.021 16.045-11.743 6.418-4.384 12.618-9.11 18.551-14.336a22.72 22.72 0 0 1 4.432-3.038c1.597-.841 3.071.321 3.053 2.618zm-386.29 98.928c.244-4.348.619-7.744 2.089-10.84 1.488-3.133 3.944-4.389 7.449-3.816 2.429.399 4.586 2.633 5.002 5.777.805 6.072-.583 11.539-4.36 15.87-3.044 3.491-7.403 2.376-9.104-2.192-.66-1.75-.85-3.737-1.076-4.799zM26.466 80.024c-.091 5.725-1.316 11.228-2.542 16.722s-2.555 10.955-3.934 16.396c-.317 1.241-.882 2.487-1.596 3.475-.895 1.235-2.18.915-2.569-.641-.321-1.294-.484-2.744-.339-4.069l2.628-22.242a293.28 293.28 0 0 0 1.104-11.933c.194-2.67 1.443-4.489 3.419-4.594 1.99-.105 3.609 1.698 3.822 4.321.068.841.009 1.703.009 2.565zm60.393 21.737c6.494.416 11.736 3.743 16.077 9.152 1.791 2.234 3.017 4.894 3.519 7.917.56 3.354-.371 6.119-2.705 8.206-.904.809-1.298.62-1.777-.557-3.406-8.458-8.751-14.393-16.539-17.158-.823-.295-1.664-.542-2.46-.915-1.37-.642-2.089-1.872-1.994-3.254.099-1.467.986-2.639 2.46-2.97 1.121-.263 2.279-.295 3.419-.421zM31.761 358.519c.032 6.781-.877 13.331-3.595 19.408a14.24 14.24 0 0 1-1.904 3.128c-.724.888-1.718 1.356-2.808.82s-1.465-1.693-1.47-2.918.176-2.465.371-3.679l2.854-18.152c.547-4.221.145-8.479-.592-12.674-.149-.841-.299-1.693-.339-2.545-.054-1.172.285-2.192 1.289-2.686 1.054-.515 1.999-.121 2.637.868.583.904 1.067 1.929 1.434 2.98 1.75 4.947 2.103 10.172 2.125 15.45zm248.551-332.54l-9.927 2.513c-2.646.746-3.894-.463-3.754-3.638.131-2.996.145-5.998-.818-8.889-.611-1.835.366-3.443 2.116-3.601l9.199-.746c1.198-.089 2.13.704 2.265 1.887.141 1.172-.556 2.208-1.818 2.408l-5.87.725c-.276.032-.547.137-.886.221l.43 5.509 8.068-1.498c2.207-.194 3.432-1.214 3.884-3.701.141-.773.525-1.498.855-2.213.466-1.004 1.176-1.614 2.207-1.425 1.036.194 1.628 1.046 1.687 2.161.068 1.214.122 2.571-.253 3.659-1.447 4.19-3.067 8.306-4.636 12.443-.113.3-.28.668-.511.789-.624.342-1.316.846-1.94.778-.9-.1-1.194-1.13-1.135-2.082.068-1.183.285-2.355.457-3.527.072-.463.194-.904.38-1.772zM-3.211 112.622l10.447.042c.828.021 1.678.457 2.46.851.963.489 1.637 1.325 1.483 2.676-.154 1.341-1.045 1.74-2.026 1.914-4.586.814-9.163 1.75-13.766 2.37-4.767.642-9.561 1.004-14.345 1.404-.923.079-1.899-.074-2.795-.363-2.347-.757-3.008-3.706-1.14-5.525.954-.935 2.279-1.698 3.5-1.866 4.681-.646 9.393-1.03 14.092-1.493.687-.068 1.393-.01 2.089-.01zm333.758 66.766l.954-4.694 1.447-6.355c.398-1.798 1.439-3.06 3.026-2.986 1.307.057 2.718.389 3.871 1.077 2.51 1.504 4.907 3.275 7.313 5.005 1.302.936 2.076 2.313 1.908 4.184-.167 1.887-1.257 2.839-2.645 3.601l-8 4.668c-.62.368-1.212.82-1.855 1.115-3.17 1.477-6.105-.905-6.019-5.615zm-7.489 83.163c-4.998-.047-9.181-1.977-12.347-6.45-1.189-1.682-2.044-3.585-2.274-5.788-.217-2.055.497-3.795 1.858-4.626 1.348-.82 3.008-.51 4.337.846.43.442.855.91 1.19 1.446 3.88 6.193 9.171 7.833 15.372 6.366 1.424-.336 2.776-1.093 4.169-1.635.394-.152.814-.215 1.221-.321.014.5.136 1.036.023 1.499-.624 2.565-2.098 4.389-3.971 5.808-2.939 2.235-6.272 2.692-9.578 2.855zM158.191 120.959l14.242.857c1.673.121 2.668 1.125 2.89 2.581.208 1.377-.43 2.602-1.913 3.454l-5.233 2.87-7.476 5.209c-.524.368-1.013.831-1.573 1.109-1.574.778-3.076-.005-3.704-1.866-.091-.268-.19-.541-.217-.82-.245-2.449-1.041-4.636-2.008-6.828-1.506-3.412-.226-6.014 3.039-6.629.646-.121 1.302-.158 1.958-.231l-.005.294zm-172.237-11.56c-3.98 0-7.964.006-11.944-.005-.574 0-1.149-.058-1.718-.158-1.515-.262-2.08-1.797-.995-3.064.715-.831 1.732-1.535 2.709-1.793 2.637-.683 5.309-1.34 7.996-1.572 6.793-.583 13.599-.956 20.401-1.351 1.262-.073 2.546.084 3.808.247 1.393.184 2.193 1.057 2.316 2.319.127 1.293-.439 2.476-1.813 2.817-3.039.752-6.105 1.472-9.194 1.798-3.84.41-7.706.415-11.564.594v.168zM97.948 331.541c.027 9.026-5.775 17.894-13.282 20.192-1.004.304-2.117.373-3.152.241-1.257-.157-2.071-1.309-2.193-2.702-.127-1.435.384-2.549 1.47-3.191.647-.383 1.379-.609 2.094-.804 8.217-2.218 13.043-14.456 6.259-23.214-1.008-1.304-1.131-2.591-.394-3.59.724-.983 1.832-1.052 3.143-.195 3.831 2.513 6.037 7.349 6.056 13.263zM450.419 224.86c.236-4.647 1.344-9.137 3.831-13.053.62-.978 1.452-1.814 2.293-2.55 1.461-1.277 2.953-.415 4.287.332 1.131.63 1.045 2.108.905 3.327l-1.665 13.305c-.14 1.13-.244 2.271-.298 3.412-.063 1.382.398 2.444 1.479 3.154.764.499.452 1.262.09 1.845-.746 1.214-1.868 1.482-3.066 1.393-4.419-.321-7.268-3.58-7.747-8.842-.059-.715-.068-1.435-.109-2.323zM146.618 462.409c-3.654 0-7.312.042-10.967-.026-1.044-.021-2.134-.221-3.116-.615-1.135-.457-1.741-1.598-1.736-3.018.009-1.361.601-2.444 1.669-2.928.9-.41 1.899-.699 2.858-.709l20.328-.032c1.551.011 3.107.316 4.645.6.674.126 1.461.352 1.913.872.561.636 1.171 1.656 1.121 2.45s-.768 1.861-1.424 2.197c-1.058.542-2.302.768-3.469.799-3.939.09-7.883.037-11.822.037v.373zm301.983-47.369l.724-4.232c.511-1.976 1.569-3.569 3.369-3.968.814-.179 1.89.136 2.596.672.859.652.837 1.909.434 3.002l-3.609 9.709c-.384 1.031-1.049.71-1.47.205-.669-.804-1.18-1.782-1.795-2.744-3.826.82-6.589-1.466-8.615-7.501-1.447-4.321.095-10.062 3.156-12.827 1.977-1.787 4.672-1.766 6.612.053 1.438 1.346 1.759 3.291.81 4.941-.489.852-1 1.262-1.732.253-.502-.689-1.031-.673-1.493.147-1.836 3.28-1.795 7.885.127 11.102.226.368.511.684.886 1.188zm-2.894-61.389l-.995 12.249c-.032.378-.14.814-.018 1.13.637 1.682-.1 2.717-1.158 3.643l-4.649 4c-1.158.815-2.528 1.299-3.858 1.667-1.148.32-1.501-.752-1.506-1.846l.082-8.111.271-8.011c.032-1.54.466-2.912 1.524-3.743l7.082-5.099c.48-.326 1.199-.331 1.791-.258 1.004.126 1.502.878 1.438 2.082l-.104 2.281c.032.011.068.011.1.016zm-8.692 15.765c1.212-.82 2.27-1.824 3.482-2.281 1.556-.589 1.709-1.646 1.628-3.28l-.036-8.564-3.397 2.55a1.17 1.17 0 0 0-.388.683l-1.289 10.892zm-23.77-268.06l2.085-16.679c.126-.973.429-1.95.8-2.839.66-1.567 2.022-2.324 3.351-2.034 1.429.315 2.51 1.588 2.492 3.417-.018 2.034-.321 4.069-.502 6.103l-1.691 18.772c-.082.893-.186 1.803-.403 2.665-.303 1.183-1.017 1.976-2.098 2.139s-2.072-.362-2.465-1.472c-.57-1.603-1.004-3.317-1.217-5.03-.203-1.635-.045-3.328-.045-5l-.307-.042zM181.532 459.791l-2.546 2.755c-.914.878-1.981 1.146-3.116.578-.995-.494-1.682-1.43-1.615-2.639.059-1.02.412-2.139.918-2.986l4.609-7.228c1.194-1.95 2.591-3.38 4.794-3.022 2.179.352 3.373 2.081 3.97 4.363.367 1.398.629 2.88.683 4.342l-.027 7.875c-.059 2.249-1.017 3.664-2.56 4.01-1.528.347-3.193-.615-3.853-2.57-.565-1.672-.814-3.485-1.257-5.478zm8.945-24.533l-2.261 3.469c-.353.521-.728 1.052-1.18 1.435-.764.647-1.637.689-2.415.037-.769-.646-1.117-1.64-.751-2.66 1.361-3.774 2.65-7.606 4.256-11.239 1.352-3.07 4.73-3.411 6.584-.694 1.041 1.52 1.805 3.433 2.271 5.31.778 3.154 1.266 6.408 1.782 9.641.379 2.376-.629 4.316-2.352 4.852s-3.473-.531-4.179-2.771c-.547-1.74-.873-3.574-1.293-5.367l-.462-2.013zM52.438 343.705c-.041 2.913-.498 5.015-1.66 6.85-2.108 3.327-5.726 3.964-8.602 1.535-3.193-2.697-4.287-8.316-2.415-12.354l.687-1.519c1.664-3.885 5.499-5.025 8.529-2.465 2.506 2.108 3.342 5.178 3.46 7.953zm-6.309 3.254c1.122-1.808.923-4.778-.244-6.008-.629-.657-1.14-.394-1.217.457-.185 1.998.267 3.817 1.461 5.551zm116.969-9.12c-2.709 0-5.422.026-8.131-.016-.769-.011-1.569-.11-2.297-.379-.927-.341-1.484-1.182-1.533-2.36-.055-1.235.416-2.202 1.383-2.618.873-.373 1.823-.567 2.755-.652l15.729-1.377c.542-.052 1.153-.604 1.537-1.119.909-1.225 1.678-2.587 2.542-3.859.606-.894 1.416-1.419 2.374-.883.891.499.896 1.493.701 2.492-.656 3.364-2.044 6.355-3.839 9.02-.529.784-1.778 1.199-2.718 1.251l-8.503.058v.442zm148.039-63.445c-7.548-.346-12.098-5.293-13.337-13.567-.262-1.761.054-3.438 1.167-4.779.841-1.014 1.899-1.409 3.039-.92 1.072.463 1.741 1.304 1.99 2.792.217 1.303 1.004 2.47 1.488 3.722 2.234 5.761 6.304 7.969 11.478 8.053.33.005.669-.047.981.031.321.085.62.3.927.458-.163.352-.258.804-.502 1.041-2.162 2.097-4.694 3.049-7.231 3.169zm-313.66-82.053c-2.741.042-4.03-1.908-3.509-4.384l1.705-7.459.846-4.463c.199-1.157.656-2.066 1.651-2.461s1.759.084 2.587.784c3.414 2.896 4.477 7.485 6.259 11.544.606 1.382.081 2.996-1.135 3.48-2.98 1.177-6.024 2.134-8.403 2.959zm368.816 249.22c.036 4.116-1.651 6.755-4.188 8.61-2.501 1.83-5.554.694-7.105-2.339-1.895-3.706-1.262-9.042 1.443-11.98 1.574-1.714 3.419-2.566 5.531-1.719 2.143.857 3.645 2.539 4.07 5.257.131.846.199 1.698.249 2.171zM112.47 197.162c-.435 1.14-.579 2.223-1.122 2.817-2.424 2.634-3.894 5.993-5.517 9.252-.227.452-.444.915-.697 1.346-.624 1.062-1.474 1.682-2.609 1.482s-1.791-1.061-2.121-2.302c-.588-2.182-1.136-4.384-1.8-6.534-.267-.868-.728-1.698-1.235-2.424-.615-.872-1.004-1.75-.701-2.875.317-1.178 1.072-1.835 2.089-1.919 2.7-.226 5.405-.42 8.109-.531 1.375-.058 2.777-.037 4.134.216.52.094.945.925 1.47 1.472zM54.555 304.868c-1.999-.115-3.79-.525-4.712-2.802-.592-1.456-.271-1.671 1.027-2.102 4.414-1.467 8.633-3.438 11.6-7.817.407-.605.583-1.456.764-2.224.516-2.155 1.813-3.333 3.451-3.054s2.682 2.008 2.569 4.232c-.176 3.527-1.488 6.408-3.745 8.71-3.157 3.212-6.933 4.61-10.954 5.057zm193.629-291.71c-2.795 0-5.585.037-8.38-.026a7.42 7.42 0 0 1-2.528-.526c-.968-.384-1.515-1.293-1.533-2.523s.493-2.192 1.46-2.565c.918-.352 1.922-.536 2.89-.557l14.174-.147 2.586-.074c1.999-.011 3.37 1.419 3.356 3.469s-1.411 3.417-3.405 3.406l-8.625-.005.005-.452zm-1.615 184.724c-1.935-.021-3.591-.72-4.509-2.839-.967-2.239-.47-4.347.625-6.361.366-.667.646-1.398.963-2.102.036-.085.054-.179.086-.268 1.528-3.985 7.959-5.489 10.65-2.482 1.488 1.661 1.755 3.733 1.28 5.951-.914 4.258-5.323 8.153-9.095 8.101zm-.551-4.448c2.17.043 4.631-2.123 5.277-4.331.389-1.325-.004-1.929-1.162-1.467-1.488.599-2.976 1.356-4.269 2.376-.498.389-.556 1.693-.602 2.597-.013.326.615.684.756.825zm-57.436 85.287c2.37.037 4.233 1.02 5.174 3.737.52 1.493.574 2.65-.538 4.095-1.868 2.429-3.993 4.358-6.336 6.046-2.429 1.75-5.536.189-6.169-3.07-1.053-5.431 2.886-10.845 7.869-10.808zM319.643 82.963c-1.094-.031-1.827-.515-2.048-1.735-.217-1.183.316-2.229 1.46-2.592l6.92-2.019 16.697-4.91c.714-.21 1.447-.321 2.166-.51 1.352-.363 2.537.331 2.849 1.693.33 1.435-.425 2.749-1.859 3.133L333.6 79.278l-12.948 3.48-1.009.205zM134.828 213.111c.308-1.425.489-2.913.95-4.269 1.18-3.448 3.975-4.994 6.888-3.953 3.052 1.088 4.762 4.274 4.138 7.869-.525 3.023-2.044 5.178-4.518 6.335-3.785 1.766-7.376-1.172-7.458-5.982zm316.55-19.314l1.628-2.208c.887-1.119 1.692-2.376 2.727-3.264 1.606-1.372 3.79-.668 4.147 1.551.611 3.742 2.718 5.435 5.45 6.623.099.042.163.2.24.3-1.592 2.607-5.821 1.866-8.928-1.635l-.895 1.083c-.873.862-1.687 1.85-2.664 2.507-2.243 1.498-4.536.589-5.395-2.25-.466-1.535-.579-3.254-.647-4.904-.059-1.42.149-2.855.271-4.279.095-1.094.52-1.972 1.561-2.045 1.022-.074 1.632.699 1.818 1.761.203 1.156.244 2.36.298 3.548l.009 3.075.38.137zM407.008 82.18l-.746 5.047c-.118.552-.728 1.225-1.221 1.372l-6.322 1.561-3.279.589c-2.252.189-3.523-1.95-2.601-4.353l2.262-5.53c.407-.967 1.144-1.561 2.003-1.188 1.515.662 2.903.095 4.328-.273l2.496-.762c2.121-.547 3.107.415 3.08 3.538zm87.84 1.146c-.439 1.703-.66 3.554-1.389 5.068-.524 1.088-1.682 1.835-2.668 2.507-.325.221-1.23-.063-1.483-.452-.882-1.356-1.854-2.755-2.316-4.326-.787-2.692-1.302-5.504-1.754-8.306-.389-2.413.574-4.426 2.207-5.204 1.705-.815 3.604-.131 4.87 1.845 1.656 2.592 2.135 5.614 2.533 8.868zm-93.19 283.462c-.502 5.793-1.492 11.439-2.93 16.969a10.76 10.76 0 0 1-1.638 3.475c-.411.573-1.415 1.046-1.976.862s-1.18-1.204-1.289-1.95c-.181-1.236-.09-2.576.095-3.827l2.628-16.738c.104-.652.244-1.309.465-1.919.403-1.104 1.136-1.75 2.203-1.703s1.804.731 2.071 1.892c.231.947.258 1.956.371 2.939zM115.5 214.01c-.177.925-.353 2.654-.837 4.258-1.063 3.506-2.248 6.97-3.46 10.413-.285.81-.782 1.599-1.343 2.187-1.434 1.509-3.229.81-3.654-1.393-.14-.725-.186-1.561-.018-2.26l3.781-15.261c.542-2.029 1.858-2.886 3.242-2.581 1.479.321 2.32 1.73 2.289 4.637zM16.869 86.911c-.099 3.753-2.438 6.319-5.608 6.277-2.817-.037-6.074-3.322-5.866-7.133.208-3.816 2.569-6.44 5.906-6.324 3.112.1 5.667 3.401 5.567 7.181zm65.264 312.017c.678.105 1.461.01 2.031.368s1.216 1.125 1.307 1.808c.081.605-.421 1.609-.913 1.945-.782.537-1.755.778-2.677.936l-15.489 2.523c-.647.1-1.32.19-1.958.079-1.162-.2-1.949-.978-2.117-2.407-.149-1.309.516-2.487 1.682-2.976.384-.158.791-.284 1.194-.331l16.941-1.945zm209.159-234.816c.642-1.014 1.036-2.082 1.728-2.649l7.606-5.814c1.217-.899 2.189-.31 2.501 1.356l1.077 5.131c.312 1.351.194 2.297-1.045 3.043l-7.385 4.847c-1.009.668-1.968.315-2.47-.704-.773-1.583-1.302-3.328-2.012-5.21zM1.94 373.716l-5.165-.877c-2.098-.563-3.88-1.819-4.984-4.085-.923-1.892-.742-3.906.407-5.131 1.081-1.151 2.641-1.24 4.188.058 3.093 2.602 6.648 3.885 10.248 5.041.687.221 1.452.121 2.18.195.303.032.601.121.904.179-.081.383-.086.825-.258 1.146-.868 1.65-2.23 2.528-3.79 2.923-1.271.32-2.587.389-3.731.551zm384.22-179.12c.018-3.617.674-4.652 2.957-5.204 2.89-.699 5.708-.142 8.435 1.046.986.431 1.768 1.388 1.583 2.602-.136.899-.751 1.856-1.384 2.46-1.515 1.441-3.166 2.681-4.762 4.006-.498.415-.959.904-1.488 1.262-1.701 1.135-3.582.552-4.301-1.562-.588-1.74-.832-3.648-1.04-4.61zm-133.304 58.046c-.132 1.514-.787 2.471-1.832 2.507-.999.037-1.759-.809-1.881-2.192l-1.972-23.477c-.059-.699-.122-1.54.149-2.092.326-.657.981-1.419 1.556-1.487.57-.069 1.275.573 1.804 1.072.263.247.349.857.385 1.314l1.791 24.355zM51.461 179.998l1.592-10.65c.394-2.303 1.714-3.496 3.292-3.259 1.646.247 2.881 1.903 2.582 4.174-.583 4.415-1.406 8.789-2.211 13.163-.136.751-.592 1.477-1.027 2.092-1.144 1.619-2.596 1.508-3.265-.437-.561-1.629-.674-3.469-.963-5.083zM40.847 13.242l-.592 4.326-.258 1.398c-.262.951-.769 1.614-1.714 1.451-.864-.147-1.262-.857-1.289-1.814l-.005-3.864.244-5.572c.222-2.77 1.917-3.769 3.726-2.008 3.329 3.243 6.526 6.671 9.719 10.093.999 1.072.918 2.639.027 3.548-.868.888-1.877.631-2.894-.52-2.166-2.455-4.391-4.841-6.594-7.254a6.7 6.7 0 0 1-.371.215zm84.412 285.05c1.37.047 2.216.646 2.636 1.877.439 1.287.208 2.502-.723 3.364a13.31 13.31 0 0 1-2.501 1.808l-10.022 5.488c-.814.442-1.664 1.025-2.519 1.083-.696.048-1.619-.394-2.089-.993-.638-.81-.362-1.887.276-2.723.162-.211.348-.421.556-.563l13.201-8.894c.411-.274.923-.353 1.185-.447zM111.918.11h5.467l-.963 9.709-.335 5.415c-.09 2.281-1.596 3.937-3.45 3.727s-3.089-2.255-2.768-4.421l1.841-12.984.208-1.446zm36.763 260.985l.013-6.571c.014-.699.113-1.441.331-2.087.37-1.115 1.13-1.735 2.188-1.735s1.832.589 2.194 1.719c.221.699.33 1.477.353 2.229l.312 12.574c.009.521-.032 1.051-.118 1.561-.28 1.662-1.375 2.744-2.732 2.75-1.402.005-2.65-1.136-2.74-2.876l-.032-7.564h.231zM119.823 156.19c.226-.589.502-1.835 1.112-2.797 1.136-1.797 2.447-3.459 3.722-5.136l4.301-5.503c.927-1.225 2.094-1.635 3.161-.983 1.036.636 1.525 2.092 1.095 3.59a8.04 8.04 0 0 1-.9 2.019c-2.492 3.953-5.481 7.349-8.801 10.355-.384.353-.809.663-1.248.915-1.393.794-2.478-.026-2.442-2.46zm32.358-96.877l1.823-11.449.922-5.467.186-.831c.443-1.54 1.451-2.297 2.596-1.956 1.058.321 1.723 1.561 1.506 3.044l-1.732 11.108-1.154 6.723c-.312 1.519-1.311 2.26-2.433 2.061-1.085-.189-1.768-1.33-1.714-3.233zm193.634-35.647c-.005 2.818-2.099 4.332-3.994 3.128-.687-.436-1.27-1.199-1.759-1.934-2.107-3.165-3.563-6.724-4.581-10.54-.33-1.241-.28-2.371.719-3.196.886-.731 1.999-.578 2.935.379.122.126.253.252.344.41l5.956 10.324c.276.494.312 1.167.38 1.43zM130.867 72.292c2.36.011 3.6.794 3.817 2.092.217 1.314-.525 2.281-2.42 3.065l-2.93 1.093-7.444 3.328c-1.714.846-2.696.92-3.356-.137-.669-1.067-.394-2.544.818-3.953 2.42-2.823 5.545-4.006 8.756-4.936 1.063-.305 2.175-.436 2.759-.552zm-26.864 318.025c-.063.857.036 1.788-.23 2.545-.263.746-.823 1.677-1.393 1.84-.462.126-1.208-.689-1.683-1.257-.348-.415-.474-1.093-.678-1.666l-3.143-9.005c-.213-.615-.421-1.251-.52-1.903-.267-1.761.57-3.443 1.94-4.022 1.411-.594 2.908.037 3.722 1.593.19.363.371.762.443 1.173l1.791 10.639-.249.063zm-2.473-66.451c.031-3.333-1.782-6.25-4.333-7.37l-.932-.363c-.841-.399-1.343-1.109-1.289-2.197.059-1.135.624-1.934 1.56-2.097.787-.137 1.678-.169 2.41.131 4.188 1.703 6.694 5.194 7.53 10.219.172 1.02-.031 2.192-.289 3.223-.353 1.414-1.47 2.229-2.497 2.102-1.126-.136-1.944-1.198-2.116-2.759-.045-.432-.045-.863-.045-.889zM416.56 10.645c-.113 2.681-.529 4.547-1.683 6.093-1.8 2.408-4.689 2.371-6.204-.284-1.538-2.697-2.017-5.704-.81-8.805.746-1.924 2.04-3.149 3.885-3.233 1.768-.079 3.075 1.057 3.83 2.823.539 1.251.778 2.67.982 3.406zm-3.139.699c-.113-.463-.226-1.32-.538-2.071-.547-1.314-1.443-1.383-1.972-.1-.411.999-.656 2.15-.737 3.254-.081 1.146.941 2.623 1.619 2.539 1.189-.147 1.361-1.298 1.542-2.381.05-.273.045-.562.086-1.241zM310.21 443.301c-.299 1.235-.421 2.25-.792 3.122-.411.978-1.176 1.42-2.171 1.052l-5.155-1.856-1.05-.415c-1.885-.941-2.333-2.592-.845-4.232 1.592-1.756 3.428-3.259 5.282-4.642 1.194-.888 2.668-.236 3.179 1.293.643 1.887 1.072 3.875 1.552 5.678zM6.332 171.377c-1.429-.058-2.533-.736-3.225-2.108L.33 163.366c-.24-.537-.371-1.173-.439-1.777-.276-2.508 1.615-4.248 3.636-3.317.556.257 1.113.678 1.515 1.188l3.867 5.194c.941 1.377 1.081 2.975.371 4.578-.624 1.399-1.678 2.035-2.949 2.145zm387.878 54.387c-.742-.668-1.556-1.141-2.044-1.903-.588-.915-.344-2.003.248-2.923.122-.189.258-.384.426-.515l10.6-8.301c.855-.651 1.931-.904 2.682.195.805 1.172.231 2.287-.516 3.175-.913 1.088-1.881 2.129-2.89 3.096l-6.06 5.609c-.66.589-1.469.952-2.446 1.567zM301.214 11.717c-2.446-.168-4.242-.51-5.286-2.818-.706-1.572-.674-2.991.135-4.431 1.99-3.543 6.585-3.822 8.891-.552 1.624 2.302 1.176 5.404-1.094 6.797-.945.583-2.062.794-2.646 1.004zM32.938 131.578l.154-1.908c.353-2.603 2.012-4.39 4.034-4.364 2.094.027 4.02 2.019 4.07 4.642.032 1.609-.29 3.317-.805 4.815-.624 1.809-1.985 2.781-3.745 2.597-1.759-.178-2.817-1.451-3.333-3.312-.244-.893-.285-1.86-.375-2.47zm401.843 77.611c-2.958-.031-4.423-1.735-4.405-5.12.013-2.833 1.8-4.973 4.156-4.984 2.831-.01 5.246 2.25 5.196 4.863-.077 3.727-1.538 5.273-4.947 5.241zm-16.951-93.135c3.709-.037 5.568 3.312 4.107 7.249-.801 2.156-3.582 2.892-5.423 2.755-1.754-.131-3.057-1.63-3.373-3.575-.475-2.917 2.066-6.402 4.689-6.429zM38.676 381.497c-2.329.036-4.247-2.045-4.4-4.542-.154-2.429 3.062-6.019 4.726-5.998 2.239.031 4.351 2.244 4.391 4.82.054 3.181-2.008 5.677-4.717 5.72zM356.664 77.485c-.864 0-1.728.047-2.587-.011-1.791-.11-2.808-1.808-2.071-3.701.692-1.772 1.556-3.475 2.496-5.089.855-1.461 2.528-1.63 3.546-.405 1.076 1.298 2.062 2.712 3.016 4.142.71 1.062.823 2.255.227 3.485-.62 1.277-1.543 1.766-2.782 1.582-.61-.089-1.23-.074-1.845-.11.005.032 0 .068 0 .105zM12.179 364.538c-3.433-.126-7.349-4.594-7.489-8.453-.063-1.666.592-2.933 1.759-3.401 1.203-.484 2.578.021 3.238 1.535 1.307 3.007 2.528 6.066 3.645 9.173.488 1.372-.61 1.067-1.153 1.146zM344.698 13.053c.262-1.845 1.013-3.075 2.198-3.27 1.221-.205 2.189.673 2.605 2.408l1.641 7.013c.493 2.218.1 3.732-1.035 4.247-1.172.536-2.596-.305-3.293-2.402-.854-2.597-1.424-5.325-2.116-7.996zM243.413 64.122c-2.442-.121-4.211-2.082-4.161-4.621.05-2.492 1.832-4.5 3.898-4.395 2.253.116 4.071 2.502 3.989 5.23-.068 2.276-1.65 3.885-3.726 3.785zm57.336 136.714c.298-.93.547-2.376 1.175-3.543 1.045-1.945 2.854-1.856 4.265-.252 2.899 3.296 1.434 6.155-.769 8.842-.764.93-1.84.962-2.673.073-1.144-1.225-1.777-2.817-1.998-5.12zm125.272 51.8c.637.752 1.207 1.262 1.596 1.909l2.65 4.71c.661 1.114.398 2.155-.764 2.265-2.135.2-4.215.495-6.142 1.73-.33.21-1.189-.026-1.397-.378-.289-.495-.421-1.399-.231-1.946l2.307-5.661c.158-.384.235-.841.47-1.141.385-.483.864-.867 1.511-1.488zm-227.973 29.023c-.561-.531-1.307-.899-1.515-1.514-.208-.625.041-1.519.231-2.244.094-.352.488-.631.795-.862l5.839-4.274c.547-.379 1.212-.641 1.845-.715 1.47-.168 2.379 1.33 1.863 2.938-.04.132-.09.279-.167.379-2.37 3.096-5.54 4.61-8.891 6.292zm107.318 174.095l-3.084 8.206c-.439 1.051-1.384 1.53-2.415 1.057-1.041-.474-1.362-1.556-1.122-2.708l1.678-6.97c.176-.642.579-1.43 1.058-1.677.71-.363 1.714-.652 2.347-.326s.959 1.451 1.538 2.418zm-45.84-207.686l-.316 4.837c-.122 1.219-.588 2.213-1.818 2.265-1.031.042-1.827-.83-1.909-2.318-.081-1.514.009-3.044.059-4.563l.195-4.989c.022-1.156.438-1.955 1.415-2.181.995-.231 1.795.384 1.981 1.435.312 1.798.38 3.653.547 5.483l-.154.031zM387.919 122.61c-.014-2.681 1.515-4.81 3.478-4.847 1.904-.032 3.459 1.824 3.468 4.137.009 2.465-1.727 4.789-3.599 4.815-1.841.021-3.338-1.813-3.347-4.105zm82.051 325.774c1.52.016 2.6.489 3.193 1.898.57 1.356.285 2.597-.511 3.722l-.534.783c-1.099 1.551-2.505 2.066-3.921 1.44-1.361-.604-2.202-2.192-2.112-3.979.091-1.824 1.054-3.16 2.668-3.648.471-.142.968-.174 1.217-.216zm-81.852-203.349c-1.899-.021-3.518-1.766-3.338-3.9.249-2.934 1.05-4.516 2.917-4.474 2.252.048 4.093 1.914 4.084 4.195-.009 2.224-1.746 4.206-3.663 4.179zm11.035-208.758c.009 1.908-1.56 2.97-2.917 2.034a6.37 6.37 0 0 1-1.909-2.155c-.886-1.635-1.641-3.38-2.342-5.136-.371-.941-.168-1.908.655-2.492.878-.615 1.724-.321 2.302.536l3.854 6.066c.235.368.28.883.357 1.146zm-97.685 66.725c-.005-2.119 1.361-3.822 3.084-3.843 1.768-.021 3.641 1.945 3.659 3.843.022 2.187-1.66 4.184-3.496 4.147-1.913-.042-3.238-1.734-3.247-4.147zM41.137.047L48.3.074c.276.005.724.326.796.605l1.022 4.847c.185 1.661-1.158 2.628-2.361 1.693-2.456-1.908-4.658-4.163-6.621-7.17zm11.749 324.182c-.032 2.255-1.054 3.606-2.704 3.585-1.678-.021-3.311-1.956-3.283-3.885.023-1.556 1.718-3.269 3.224-3.264 1.655.01 2.795 1.482 2.763 3.564zm322.687 124.875c-.032 1.829-1.235 3.228-2.727 3.18-1.457-.047-2.551-1.456-2.51-3.243.04-1.85 1.221-3.228 2.722-3.175 1.461.047 2.546 1.446 2.515 3.238zM271.258 38.117c-1.249-.058-2.153-.405-2.42-1.777-.217-1.12.357-2.087 1.578-2.471.941-.294 1.927-.494 2.899-.526 1.19-.037 2.026.82 2.072 1.956.049 1.314-.62 2.024-1.647 2.297-.873.242-1.772.379-2.482.52zM26.895 403.864c-1.506 0-2.564-1.214-2.569-2.938-.005-1.704 1.103-3.039 2.524-3.028 1.47.01 2.781 1.519 2.768 3.18-.014 1.614-1.158 2.786-2.722 2.786zm326.432-71.902c1.411.042 2.496 1.43 2.433 3.127s-1.208 3.013-2.601 2.986c-1.406-.026-2.478-1.408-2.428-3.133.058-1.703 1.203-3.022 2.596-2.98zm-206.564-21.227c.009-1.656 1.009-2.902 2.325-2.897 1.397.005 2.587 1.314 2.573 2.834-.014 1.577-1.167 2.896-2.524 2.886-1.374-.011-2.378-1.204-2.374-2.823zm66.168-44.189c1.665-.021 2.773.867 2.804 2.26.036 1.409-1.42 2.928-2.844 2.965-1.362.037-2.434-1.072-2.47-2.555-.036-1.492 1.054-2.649 2.51-2.67zm-21.355-115.371c-.059-1.698.615-2.534 2.112-2.618 1.144-.063 2.053.967 2.126 2.424.077 1.524-.86 3.049-1.963 2.928-1.37-.148-2.401-.505-2.275-2.734zm-17.908 290.643c.004 1.604-1.213 3.034-2.565 3.023-1.135-.005-1.913-.857-1.895-2.082.018-1.614 1.23-3.133 2.506-3.149 1.13-.01 1.949.91 1.954 2.208zm9.999-347.39c-.005 1.109-1.172 2.176-2.379 2.176-1.393 0-2.388-1.057-2.347-2.486.04-1.298 1.035-2.334 2.243-2.329 1.271 0 2.492 1.298 2.483 2.639zm20.337 305.021c-1.144-.037-2.284-1.094-2.288-2.124-.005-1.472.967-2.66 2.13-2.608 1.221.053 2.143 1.125 2.121 2.455-.018 1.283-.909 2.313-1.963 2.277zM93.498 11.25c-.027 1.246-.904 2.108-2.094 2.05-1.198-.058-2.022-.967-1.863-2.266.118-.967.036-2.281 1.307-2.371 1.357-.095 2.682 1.267 2.65 2.586zm315.921 14.04c-1.099.032-2.085-1.219-2.103-2.67-.018-1.235.714-2.14 1.727-2.14 1.131 0 1.949 1.057 2.008 2.576.041 1.272-.638 2.203-1.632 2.234zM143.932 79.593c-1.131.016-2.121-.962-2.121-2.097 0-1.157.828-2.139 1.782-2.113.968.026 1.899 1.099 1.922 2.213.023 1.057-.719 1.987-1.583 1.998zM17.62 356.259c1.027.036 1.75.941 1.655 1.992-.099 1.109-.674 1.708-1.633 1.714-.913.005-1.633-.915-1.538-1.972.104-1.114.696-1.656 1.515-1.734zM192.942 59.786c-.936 0-1.895.163-2.799-.032-3.37-.72-5.816-4.337-6.187-8.921-.217-2.686.344-5.215 1.149-7.68 1.614-4.931 4.12-9.205 7.258-12.984a7.39 7.39 0 0 1 1.542-1.404c.896-.594 1.827-.599 2.605.3.792.915.728 1.976.19 3.012-.972 1.882-2.107 3.664-2.926 5.63-1.316 3.159-2.682 6.34-3.573 9.678-1.071 4-.022 7.706 2.257 10.924.204.289.38.599.57.899l-.086.578zm5.246-2.744c-.981.294-1.723-.237-2.234-1.067-.466-.762-.918-1.645-1.054-2.539-.533-3.543-.248-7.034.918-10.382.53-1.509 1.488-2.129 2.578-1.856 1.122.284 1.886 1.425 1.696 3.054-.362 3.112-.882 6.198-1.347 9.294l-.557 3.496zm191.341 230.873c.502.084 1.244.152 1.954.347 1.058.294 1.903.946 2.13 2.292.235 1.409-.353 2.46-1.321 3.133-.904.631-1.886 1.256-2.899 1.498-2.044.494-4.124.815-6.205 1.046l-26.008 2.797c-.529.058-1.067.089-1.597.037-1.031-.1-1.795-.721-2.107-1.888-.326-1.224-.009-2.36.886-3.038.774-.583 1.683-1.088 2.583-1.241l23.295-3.742 9.289-1.241zm9.732 8.642l.995-8.779c.109-.83.362-1.677.701-2.423.57-1.251 1.529-1.851 2.763-1.64 1.176.199 2.031 1.04 2.185 2.36.144 1.235.189 2.644-.19 3.769-.887 2.65-2.013 5.199-3.112 7.749-.429.998-.918 2.139-2.13 2.008-.746-.074-1.167-1.346-1.212-3.044zm6.409-1.283l1.962-6.86c.606-1.65 2.067-2.197 3.284-1.629 1.212.562 2.017 2.15 1.46 3.79-.741 2.187-1.777 4.268-2.853 6.266-.498.92-1.456 2.045-2.424 1.377-.692-.473-.927-1.845-1.429-2.944zm-206.844-52.425l2.858.22c.339.037.665.205.999.316-.153.404-.208.983-.474 1.182-1.298.962-2.565 2.145-4.003 2.65-2.881 1.014-5.336-1.551-4.92-5.02.538-4.511 2.84-7.612 6.25-9.636.425-.252 1.257-.216 1.578.116.38.383.633 1.282.538 1.871-.181 1.104-.642 2.15-1.008 3.207l-1.818 5.094z"/></g><defs><clipPath id="A"><path fill="#fff" transform="translate(-50)" d="M0 0h582v470H0z"/></clipPath></defs></svg>