<svg xmlns="http://www.w3.org/2000/svg" width="361" height="184" fill="none" xmlns:v="https://vecta.io/nano"><g opacity=".02" clip-path="url(#A)" fill="#121212"><path d="M31.762 157.315v-1.793l-.081-7.59c.081-2.566 1.492-4.374 3.433-4.758 1.917-.378 3.858.805 4.595 3.17.538 1.724.832 3.596.999 5.43.692 7.633-.072 15.161-1.497 22.61-.253 1.325-.773 2.623-1.357 3.816-.715 1.467-1.872 2.313-3.392 2.061-1.506-.252-2.596-1.409-2.763-3.049a53.87 53.87 0 0 1-.185-8.243c.086-1.556-.19-2.276-1.461-2.828-5.427-2.355-10.994-3.632-16.787-3.07-8.556.831-15.29 5.478-20.152 13.663-4.333 7.291-2.198 16.07 4.758 19.865 3.69 2.013 7.647 2.613 11.668 2.402 12.396-.651 23.589-5.356 33.376-14.177 6.358-5.73 11.514-12.701 13.943-21.874 1.61-6.082 2.451-12.316 1.42-18.656-1.208-7.459-4.4-13.489-9.936-17.731-7.638-5.856-15.86-7.885-24.801-5.189-2.618.794-5.219 1.703-7.788 2.702-.841.326-1.515 1.188-2.334 1.64-.547.3-1.262.526-1.818.379-1.434-.379-2.279-2.271-1.813-3.969a6.8 6.8 0 0 1 1.067-2.224c.611-.82 1.307-1.64 2.108-2.171 10.316-6.849 20.993-9.746 32.489-4.005 8.995 4.494 15.878 11.375 19.37 22.315 2.542 7.964 2.207 15.991.76 24.128-2.252 12.643-8.461 22.384-16.778 30.385-11.347 10.913-24.57 16.748-39.196 18.288-4.676.494-9.303-.068-13.676-2.181-7.742-3.738-12.229-10.54-13.463-20.139-.552-4.284.402-8.348 2.04-12.196 6.214-14.577 19.664-23.056 33.552-21.174 4.473.604 8.837 1.677 12.948 3.9.185.105.389.142.755.263zm42.968 22.73c1.185-.835 2.451-1.545 3.532-2.533l6.218-6.093c2.754-2.749 5.639-5.267 9.081-6.765 1.791-.784 3.595-1.036 5.382.005 2.044 1.193 3.017 3.285 3.492 5.761.669 3.47.14 6.881-.643 10.193-1.533 6.487-3.296 12.9-4.884 19.372-1.547 6.308-2.56 12.747-2.917 19.292-.122 2.26.009 4.589.344 6.823.43 2.886 1.918 4.91 4.446 5.725.357.116.683.352 1.004.731-1.239.93-2.555 1.24-3.934.972-2.555-.489-4.296-2.292-5.436-4.894-1.633-3.732-2.297-7.759-2.315-11.912-.027-7.622 1.257-14.997 3.324-22.199l3.907-13.127c.638-2.307.995-4.715 1.465-7.086.072-.368.077-.762.077-1.14-.013-2.361-.47-2.802-2.18-1.598-2.483 1.75-4.866 3.711-7.218 5.693-2.293 1.934-4.4 4.168-6.761 5.971-1.515 1.157-3.279 2.014-5.034 2.566-2.777.872-4.929-.689-5.848-3.88-.85-2.954-.611-5.945-.072-8.915 1.081-5.993 3.5-11.303 6.413-16.312 2.32-3.995 4.952-7.749 7.222-11.781 3.297-5.845 4.029-12.395 3.288-19.219-.181-1.655-.746-2.98-2.157-3.879-1.737-1.104-2.302-3.096-1.705-4.852.606-1.793 2.239-2.65 4.228-2.213.204.042.407.084.602.163 11.786 4.815 22.033 11.959 28.22 25.222 2.026 4.347 3.487 8.952 4.558 13.731.073.315.163.625.376 1.445.303-.583.438-.92.633-1.198 4.948-6.966 10.836-12.49 18.063-15.97l33.914-16.344c3.966-1.908 7.878-3.916 10.858-7.675.914-1.151 1.759-2.407 2.456-3.743.868-1.666.588-2.986-.945-3.769-1.321-.678-2.818-1.214-4.238-1.219-3.835-.011-7.611.557-11.116 2.644-.498.299-1.438.384-1.782.037-.366-.368-.538-1.504-.321-2.051.371-.946.968-2.034 1.718-2.47 5.102-2.934 10.425-4.342 16.069-2.35.886.315 1.745.867 2.51 1.488 2.885 2.339 3.853 5.982 2.116 9.53-1.257 2.571-2.962 4.915-4.739 7.06-2.565 3.102-5.803 5.168-9.181 6.85l-26.773 13.189c-3.55 1.761-7.118 3.491-10.578 5.483-7.363 4.237-13.206 10.461-17.353 18.735-.646 1.293-.963 2.818-1.42 4.237-.298.936-.475 1.945-.886 2.802-.697 1.456-2.04 2.082-3.36 1.75-1.321-.325-2.343-1.529-2.474-3.175-.082-1.03 0-2.102.145-3.127.506-3.554.303-7.013-.652-10.461-2.473-8.969-6.476-16.801-12.635-23.009-1.534-1.546-3.252-2.839-4.93-4.285-2.415 10.23-7.616 18.299-12.676 26.452-3.722 5.998-7.06 12.228-8.511 19.54-.353 1.766-.371 3.622-.538 5.436.185.136.371.241.552.346zM186.163 63.581l1.638.615c7.118 2.339 12.798 7.328 17.737 13.457 3.966 4.926 5.951 10.997 6.476 17.726.099 1.267.633 2.486.728 3.753.154 2.06.136 4.147.136 6.219 0 .357-.254.714-.426 1.172-.271-.242-.429-.321-.511-.463l-5.309-8.936c-5.133-8.421-12.03-12.443-20.984-11.213-5.382.736-10.75 1.703-16.15 2.224-11.283 1.083-21.025-3.28-28.993-12.432-6.088-6.997-7.964-15.897-6.639-25.595 1.185-8.679 4.196-16.601 8.809-23.545 7.775-11.696 23.522-21.5 40.666-16.028 11.343 3.617 19.334 19.529 15.341 33.581-1.647 5.798-4.337 10.782-8.204 14.908l-4.315 4.558zm12.514 16.259c-2.456-2.87-4.83-5.767-7.973-7.617-4.206-2.476-8.566-4.106-13.35-3.906-1.054.042-1.968-.415-2.198-1.803-.19-1.151.416-2.197 1.673-2.602 1.176-.384 2.406-.673 3.623-.746 1.171-.074 2.084-.547 2.754-1.587L188 53.956c1.989-3.291 3.197-6.971 3.821-10.924 1.569-9.983-2.908-19.403-10.709-22.73-14.187-6.051-26.633 1.624-33.466 12.243-3.329 5.178-5.445 11.102-6.648 17.426-1.316 6.892-.322 13.421 3.595 18.756 5.033 6.85 11.555 10.897 19.447 11.554 4.635.389 9.167-.605 13.725-1.298 6.992-1.072 14.011-2.755 20.912.857zm166.472 101.346c-2.786 1.593-5.31 1.719-7.869.957-5.767-1.724-9.421-7.207-9.525-14.441-.108-7.606 2.384-14.04 6.892-19.471 2.474-2.98 5.36-5.33 8.471-7.333.461-.294.945-.978 1.031-1.556l2.926-21.201c.489-3.963.724-7.969 1.022-11.964.059-.778-.113-1.577-.208-2.771-1.429.731-2.74 1.178-3.848 2.003l-12.243 9.357-9.23 6.829c-.963.678-2.107 1.083-3.215 1.398-3.116.883-5.604-.552-6.667-4.084-.701-2.324-.954-4.821-1.492-7.218-.199-.883-.529-1.771-.977-2.513-.633-1.046-.895-2.034-.276-3.164.57-1.041 1.845-1.598 2.822-.899.9.641 1.805 1.582 2.275 2.644.701 1.588 1.036 3.401 1.506 5.125a42.24 42.24 0 0 1 .62 2.624c.239 1.172.814 1.524 1.7.914 2.79-1.908 5.622-3.737 8.321-5.803 4.559-3.485 8.964-7.255 13.577-10.645a19.73 19.73 0 0 1 6.2-3.023c3.586-1.03 6.219 1.162 6.96 5.362.683 3.853.335 7.728-.14 11.549l-2.94 21.637c-.067.505-.104 1.02-.167 1.693 1.606-.421 3.066-.841 4.536-1.172 4.229-.957 8.475-1.183 12.735-.237 4.88 1.088 9 3.817 12.437 7.943 6.069 7.291 5.413 17.915-1.524 24.061-3.541 3.138-7.498 5.414-11.921 6.208-9.574 1.719-20.125-4.684-22.382-17.91-.077-.457-.176-.904-.312-1.582-3.188 3.464-5.567 7.264-6.779 11.959-1.511 5.856-.905 8.053 3.283 11.696.914.794 1.958 1.388 2.944 2.066l1.457.962zm19.152-37.307c-4.273.063-8.294 1.503-12.084 3.821-2.795 1.709-2.252 1.12-1.953 4.358.37 4.053 1.284 7.875 3.952 10.834 7.087 7.875 16.765 5.82 22.676-1.393 2.654-3.238 2.397-8.116-.339-11.423-3.32-3.99-7.386-6.119-12.252-6.197zm-55.115 2.67c1.045-.625 2.044-1.009 2.809-1.724 1.492-1.404 2.907-2.933 4.255-4.526l4.278-5.336c1.14-1.156 2.578-2.018 4.003-2.66 1.216-.547 2.442.021 3.337 1.193.869 1.141 1.181 2.613.548 3.869-1.33 2.66-1.488 5.636-1.968 8.506-2.261 13.584-3.383 27.304-3.591 41.134-.108 7.155 1.045 13.952 4.044 20.271.809 1.708 1.442 3.522 1.325 5.872-.71-.284-1.353-.405-1.859-.778-.719-.531-1.42-1.168-1.985-1.909-4.591-6.04-7.449-12.952-8.019-21.095-.61-8.721.073-17.369.918-26.006.511-5.256 1.267-10.482 1.94-15.944l-1.008 1.015c-2.198 2.287-4.618 4.153-7.494 5.078-3.392 1.088-5.933-.278-7.317-4.042-.724-1.972-1.217-4.053-1.845-6.072-.566-1.824-1.031-2.061-2.429-1.015-.995.742-1.877 1.693-2.786 2.582-2.107 2.055-4.138 4.221-6.322 6.161-1.194 1.056-2.573 1.913-3.971 2.554-4.391 2.024-8.52-.347-9.719-5.656-.506-2.245-.511-4.631-.872-6.928-.322-2.056-.701-4.117-1.28-6.088-.443-1.514-.851-1.519-2.022-.599-2.234 1.756-3.473 4.258-4.043 7.27-.773 4.09-.565 8.18.127 12.233.502 2.933.977 5.871 2.261 8.579 1.126 2.381-.303 5.03-2.745 5.462-2.008.352-3.763-.447-4.903-2.292-1.352-2.192-2.713-4.495-3.527-6.992-2.293-7.023-2.542-14.277-.81-21.532 1.466-6.134 4.536-10.892 9.534-13.725 5.201-2.949 10.162-1.209 13.21 4.5 2.134 3.995 2.609 8.489 2.908 13.036l.235 3.748c1.009-.877 1.845-1.471 2.546-2.234 1.619-1.761 3.071-3.743 4.776-5.377 1.628-1.562 3.351-3.175 5.273-4.095 4.631-2.224 9.28.494 10.768 6.045.475 1.766.674 3.632 1.004 5.456.104.589.235 1.178.416 2.061zm-52.813 87.105l-1.117 3.559c-2.162 5.525-6.766 8.374-11.275 7.007-2.523-.767-4.341-2.633-5.716-5.125-1.827-3.307-2.827-6.976-3.437-10.813-.059-.363-.127-.72-.226-1.272-.48.341-.841.62-1.221.862-2.379 1.498-4.667 3.275-7.164 4.426-9.723 4.479-18.877-1.561-20.744-13.526-.833-5.325-.249-10.456 1.582-15.413 1.846-4.988 4.514-9.304 7.91-13.01 4.568-4.984 9.601-9.273 14.847-13.237 1.525-1.151 2.832-1.172 3.89-.2.977.899 1.379 2.807.945 4.474-.398 1.509-1.47 2.003-2.573 1.077-.511-.431-.855-.536-1.393-.11-10.004 7.859-16.774 18.147-18.14 32.508-.086.899-.081 1.808-.104 2.718-.194 8.237 6.702 11.686 11.379 9.756 1.678-.693 3.31-1.697 4.78-2.87 1.718-1.372 3.328-2.975 4.798-4.694 1.013-1.183 1.71-2.734 2.528-4.137.254-.431.403-.946.661-1.372 1.108-1.845 2.993-2.434 4.54-1.441 1.497.957 2.148 3.097 1.37 5.105-2.08 5.351-1.388 10.619.245 15.86.316 1.009.823 1.997 1.42 2.817 1.542 2.124 4.106 2.056 5.314-.331.737-1.456 1.135-3.28 1.266-4.983.199-2.555-.009-5.152.036-7.728.032-1.845.959-3.238 2.284-3.69 1.361-.463 2.759.1 3.704 1.54.298.452.529.962.778 1.456.475.952.823 2.019 1.424 2.839 1.511 2.055 2.967 4.247 4.753 5.935 2.822 2.67 5.929 2.276 8.566-.626 5.612-6.182 7.2-14.95 4.174-23.219-5.079-13.867-15.828-20.17-26.732-19.14-5.707.536-9.429 4.563-11.835 10.324-1.05 2.508-.484 4.279 1.501 5.925.068.058.14.1.204.163.705.678 1.763 1.203 1.343 2.57-.389 1.257-1.425 1.493-2.438 1.535-2.067.09-3.677-.899-4.753-2.944-1.533-2.907-1.895-6.055-.81-9.204 2.122-6.151 5.36-11.287 10.655-14.236 2.85-1.587 5.947-1.861 9.045-1.566 10.587 1.004 18.791 6.692 24.417 17.19 2.75 5.13 5.07 10.545 5.631 16.658.872 9.536-2.628 16.854-9.199 22.153-4.373 3.527-9.018 3.006-13.427-.274-1.271-.941-2.402-2.134-3.686-3.296zM52.791 56.774l-.629 15.019c-.208 4.269-1.343 8.237-3.044 11.996-.715 1.577-1.592 2.965-3.437 2.539-.149-.032-.321.053-.479.105l-27.365 9.052c-1.696.562-3.365 1.251-5.047 1.877-.823.305-1.637.641-2.474.883-4.844 1.383-8.24-1.74-7.932-7.528.249-4.715.891-9.394 1.212-14.104l1.547-25.564c.235-4.663 1.601-6.308 5.508-7.57 8.941-2.875 18.099-4.305 27.212-6.04 3.478-.662 7.01-1.062 10.528-1.241 3.148-.163 4.577 1.614 4.771 5.262.059 1.093.09 2.197.059 3.291l-.375 12.022c-.014.005-.032.005-.054 0zm-41.01 31.394c.497-.074.859-.089 1.203-.179l30.029-7.927a1.04 1.04 0 0 0 .62-.683c.389-2.728.864-5.457 1.049-8.206l1.248-21.579c.145-2.355.452-4.694.697-7.133-.421.047-.706.042-.977.11l-13.938 3.664c-5.495 1.609-10.944 3.433-16.412 5.162-.809.258-1.339.631-1.321 1.845.163 10.582-.963 21.064-1.908 31.562l-.289 3.364zm280.271-31.494l-4.188 6.955c-.976 1.524-1.99 3.065-3.183 4.358-2.601 2.812-5.934 2.203-7.236-1.624-1.022-3.012-1.312-6.361-1.913-9.562-.077-.41-.086-.836-.145-1.461l-1.379.757c-5.052 2.897-10.126 5.782-15.693 7.07-1.778.41-3.7.499-5.491.216-4.147-.657-6.458-4.579-5.526-9.341.402-2.061 1.036-4.206 2.044-5.93 1.814-3.102 3.727-6.235 6.06-8.789 7.539-8.253 16.118-14.766 25.706-19.398 1.804-.873 3.753-1.372 5.657-1.929 1.072-.315 2.121-.095 2.976.867.195.221.48.378.746.468 2.709.899 4.948 2.728 6.626 5.241 2.636 3.953 5.3 7.938 7.494 12.222 2.907 5.677 3.975 11.991 3.229 18.614a16.51 16.51 0 0 1-.552 2.786c-1.022 3.501-3.591 5.336-6.73 4.779-3.174-.568-5.811-2.276-7.796-5.257-.195-.3-.398-.589-.706-1.041zm-9.795 3.943l.28.074c.289-.442.615-.852.868-1.319l5.816-10.96c.891-1.677 2.062-2.902 3.88-2.76 1.859.142 2.908 1.551 3.645 3.391.466 1.167.878 2.387 1.497 3.438.489.825 1.262 1.43 1.909 2.129l.393-.284c0-.993.037-1.982-.004-2.975-.177-4.095-1.465-7.686-3.641-10.892-3.586-5.299-7.389-10.356-11.749-14.83-.706-.725-1.158-.846-1.981-.284-7.177 4.905-13.925 10.477-19.994 17.116-2.939 3.217-5.621 6.697-7.729 10.724-.393.752-.705 1.561-1.175 2.618.786 0 1.316.084 1.818-.016 1.288-.263 2.605-.489 3.848-.946 5.64-2.092 11.189-4.374 15.901-8.816 2.365-2.229 5.287-.783 5.906 2.691.159.883.204 1.798.231 2.702l.082 5.299c.027 1.293.126 2.597.199 3.901zm-23.504 74.504l.769-10.267-1.411.941c-2.08 1.393-4.242 2.529-6.671 2.781-3.807.4-5.766-1.898-5.372-6.287.47-5.21 2.365-9.736 5.133-13.741 3.989-5.778 6.503-12.349 8.145-19.424.361-1.556.57-3.18.66-4.789.095-1.756-.344-2.245-1.823-1.892-2.727.647-5.58 1.072-8.095 2.355-3.74 1.908-7.285 4.368-10.799 6.818-2.108 1.467-3.664 3.68-4.559 6.413-.719 2.197-.452 2.965 1.194 4.31.479.389.755 1.115 1.126 1.683-.543.347-1.058.898-1.637 1.014-4.541.904-7.589-2.297-7.241-7.633.263-4.032 1.746-7.533 4.26-10.225 7.042-7.533 15.264-12.154 24.924-12.953.244-.021.493-.01.741-.01 5.351.021 8.62 3.69 8.453 9.935-.072 2.676-.592 5.409-1.28 7.98-1.963 7.344-4.821 14.167-8.918 20.296-1.565 2.339-2.61 5.157-3.849 7.786-.244.52-.316 1.151-.547 2.029.715-.237 1.262-.274 1.673-.573 1.9-1.399 3.786-2.828 5.622-4.332.696-.573 1.257-1.367 1.877-2.066 1.261-1.419 2.455-1.777 3.658-1.099 1.226.689 1.66 2.124 1.506 4.169l-1.528 21.401c-.195 3.085-1.918 4.799-4.473 3.963-6.838-2.239-13.473-1.23-19.899 1.798-6.585 3.102-12.613 7.375-18.049 12.727-.773.762-1.479 1.624-2.316 2.555l1.149.793c-.461 2.056-2.519 2.965-4.219 1.824-1.511-1.009-2.23-2.66-1.927-4.589.244-1.556.706-3.201 1.479-4.479 1.144-1.892 2.456-3.779 4.029-5.167 7.702-6.792 16.024-12.148 25.729-14.041 3.631-.71 7.267-.841 10.921-.226.462.089.946.142 1.565.221zm-90.349 28.208c.018-5.346 1.293-10.261 3.758-14.767 2.668-4.888 5.965-9.115 9.985-12.548 6.201-5.298 12.844-9.63 20.265-12.169 4.966-1.698 9.923-3.464 14.961-4.82 9.122-2.461 16.642-7.933 23.06-15.682 1.325-1.603 2.442-3.332 2.908-5.556.248-1.193.859-2.082 2.035-2.124 1.194-.042 2.08.715 2.275 1.966.239 1.509.33 3.133.104 4.637-.475 3.18-1.999 5.803-3.74 8.274-5.952 8.448-13.364 14.32-22.423 17.342l-16.086 5.462c-6.535 2.26-12.451 5.977-17.877 10.708-5.301 4.621-9.272 10.393-10.814 18.078-.167.836-.28 1.688-.357 2.545-.529 5.94 1.307 10.392 5.974 13.226 3.826 2.323 7.72 4.021 12.139 3.096.23-.047.501.142.75.221-.212.347-.357.82-.646 1.03-3.799 2.765-7.879 3.023-12.094 1.656-1.221-.394-2.424-.915-3.581-1.514-7.141-3.727-10.592-9.962-10.596-19.061zM93.48 89.466l-7.657 3.023c-3.632 1.435-7.313 2.875-11.193 2.118-2.062-.405-4.188-1.167-6.001-2.35-4.124-2.686-5.079-7.517-2.713-12.275 1.339-2.697 3.247-4.789 5.4-6.592 3.288-2.749 6.815-5.067 10.66-6.492 4.721-1.751 9.511-3.349 14.363-4.51 4.74-1.135 9.556-1.036 14.296 1.319l1.637-8.863c.321-1.824.57-3.664.855-5.493.171-1.099.502-2.092 1.65-2.113 1.199-.021 1.778.967 1.741 2.129-.09 2.944-.248 5.893-.592 8.805-.412 3.496-1.045 6.955-1.587 10.429-.385 2.455-2.402 3.764-4.016 2.287-3.207-2.944-6.811-2.939-10.443-2.213-8.945 1.793-17.24 5.535-24.548 11.922-1.076.941-2.08 2.024-3.008 3.165-1.085 1.335-.972 1.777.461 2.644 2.08 1.262 4.36 1.74 6.589 1.151 5.115-1.351 10.212-2.839 15.241-4.558 2.691-.92 4.45.21 4.364 3.527-.068 2.576-.312 5.141-.475 7.712l-.09 1.84c.538-.337.927-.541 1.28-.804 1.727-1.288 3.419-2.644 5.178-3.874 2.148-1.498 4.079-.72 4.925 2.013.525 1.703.828 3.496 1.28 5.231.534 2.055.959 2.57 2.808 2.46 2.537-.158 5.056-.641 7.584-.899.968-.1 1.995-.158 2.913.121.547.168 1.235.967 1.325 1.588s-.33 1.587-.791 2.029c-.602.583-1.439.956-2.221 1.146-2.569.631-5.146 1.214-7.742 1.661-1.036.179-2.139.063-3.189-.105-2.532-.405-4.319-2.003-5.182-4.837-.426-1.382-.747-2.807-1.172-4.431l-2.804 2.087c-1.225.873-2.419 1.829-3.708 2.544-3.03 1.682-5.626-.052-5.798-3.979-.099-2.318.185-4.663.299-6.997.013-.426.041-.846.081-1.566zm255.343-29.833l.447-4.116c.077-.662.118-1.34.276-1.977.276-1.109.891-1.882 1.95-1.808 1.044.074 1.736.873 1.736 2.04 0 2.518.077 5.089-.307 7.549-.823 5.252-1.904 10.451-2.917 15.66-.15.783-.439 1.54-.756 2.26-.14.321-.547.746-.764.699-.262-.058-.615-.541-.647-.878-.126-1.325-.248-2.665-.176-3.99.172-3.191.452-6.377.678-9.562.023-.326.005-.652.005-1.151-.597.142-1.135.305-1.682.4-5.36.894-10.601.331-15.612-2.055-7.39-3.522-10.365-10.461-8.299-19.424.588-2.555 1.366-5.194 2.605-7.381 7.186-12.669 17-19.913 30.468-18.646 5.983.563 11.207 3.233 14.752 9.31 4.523 7.749 3.912 17.253-1.84 23.813-2.031 2.313-4.514 4.111-6.843 6.056-.606.505-.918.978-1.117 1.85l-3.93 16.533c-.176.715-.556 1.388-.941 1.998-.66 1.046-1.623.946-1.949-.294-.33-1.256-.601-2.639-.506-3.922l1.696-19.355c.443-3.974 2.767-4.81 5.445-2.092 2.483-2.229 5.033-4.4 6.612-7.712 3.446-7.244.719-16.165-5.916-19.298-4.269-2.019-8.706-2.276-13.056-.736-8.493 2.996-14.974 8.994-18.8 18.441-.787 1.945-1.198 4.169-1.443 6.319-.339 2.986.697 5.451 2.949 7.044 1.045.741 2.148 1.446 3.306 1.877 4.69 1.735 9.538 2.345 14.576 2.55zM127.462 216.827c.081-9.909 1.356-19.676 2.677-29.438l1.841-14.298c.226-1.867.841-3.407 2.338-4.274 5.219-3.033 10.496-5.919 16.204-7.491 1.438-.394 3.003-.195 4.509-.258.366-.015.737.042 1.099-.005 2.261-.315 3.681 1.004 3.654 3.685-.018 2.234-.154 4.495-.462 6.697l-3.776 26.106c-.086.604-.267 1.261-.158 1.829.33 1.719-.366 2.733-1.438 3.764-4.622 4.431-9.307 8.794-13.73 13.483-2.316 2.455-4.125 5.546-6.196 8.317-.697.93-1.393 1.924-2.257 2.597-1.718 1.34-3.333.62-3.69-1.751-.376-2.476-.43-5.02-.611-7.533-.031-.473-.004-.951-.004-1.43zm25.615-49.487l-13.31 5.567c-.303.131-.588.804-.61 1.246-.163 2.896.022 5.856-.412 8.689-1.334 8.732-2.903 17.421-4.373 26.126l-1.144 7.023c.285-.142.38-.152.43-.215 4.712-6.114 10.505-10.803 15.787-16.16.34-.346.629-1.019.62-1.529-.095-6.997.665-13.904 1.565-20.796l1.447-9.951z"/><path d="M106.559.042c-5.59 11.907-9.791 24.192-10.981 37.66-.081.915-.009 1.85-.009 2.781l.579.357c.412-.647.787-1.33 1.239-1.934 2.809-3.732 5.088-7.848 6.73-12.432l6.132-17.043c.19-.526.412-1.046.692-1.514 1.049-1.766 2.732-2.46 4.301-1.824 1.51.615 2.582 2.502 2.356 4.563-.145 1.304-.515 2.602-.945 3.827-.864 2.46-1.836 4.873-2.836 7.486 3.153.221 6.119.058 9.05-.636.321-.079.633-.683.8-1.125 2.375-6.108 4.242-12.417 5.427-18.982.068-.368.172-.725.267-1.125h5.477c-.584 2.439-1.013 4.826-1.728 7.097l-5.454 16.564c-.547 1.656-1.623 2.486-3.134 2.508l-11.559.11c-.864-.011-1.041.499-1.271 1.167-2.117 6.145-5.052 11.686-9.086 16.385-1.185 1.377-2.446 2.728-3.848 3.774-3.623 2.702-7.444 1.12-8.959-3.58-.886-2.754-.932-5.635-.615-8.49 1.366-12.359 5.219-23.703 10.447-34.49.421-.867.932-1.162 1.769-1.125 1.705.074 3.414.021 5.16.021zm238.343 97.945l5.612-7.607c.357-.463 1.085-.967 1.497-.836.493.158 1.162.988 1.153 1.514-.013.983-.285 2.092-.76 2.907-1.058 1.808-2.333 3.448-3.477 5.194l-2.578 4.195c-1.348 2.224-3.32 2.197-4.799.126-2.641-3.701-5.381-7.307-8.117-10.918-.213-.279-.729-.442-1.054-.373l-27.248 5.909c-4.943 1.172-9.782 2.923-14.675 4.369-1.353.399-2.732.757-4.116.893-.99.1-2.098.063-2.994-.362-2.279-1.089-2.813-4.5-1.076-6.556.525-.62 1.244-1.156 1.958-1.404 5.825-2.019 11.587-4.431 17.525-5.809 8.81-2.04 17.75-3.328 26.637-4.936l4.256-.804c2.483-.505 3.943.342 5.314 2.755 2.22 3.885 4.54 7.691 6.942 11.744zM205.899 30.474c-.013-2.607-.343-4.92.706-7.149.886-1.882 2.125-3.059 3.894-2.902 1.727.152 3.523.536 5.114 1.309 4.455 2.145 8.236 5.504 11.637 9.447.343.399.646.873.895 1.361 1.013 1.977.633 3.943-1.153 4.947-1.841 1.036-3.785 1.824-5.703 2.671l-9.221 4c-.909.41-1.759 1.02-2.596 1.614-1.429 1.02-2.89 1.067-4.021.042s-1.569-2.728-.954-4.531c1.23-3.585 1.538-7.297 1.402-10.808zM65.776 24.723l-2.804 2.76c-1.678 1.524-3.283 3.222-5.115 4.458-4.491 3.023-9.059 1.64-11.605-3.606-1.176-2.418-1.922-5.152-2.673-7.812-.525-1.856.203-3.538 1.492-4.258 1.316-.731 2.971-.263 3.926 1.314.633 1.041 1.049 2.255 1.542 3.406.507 1.199.914 2.46 1.497 3.601.71 1.398 1.515 1.703 2.691.857 1.388-.999 2.664-2.213 3.944-3.401 1.764-1.64 3.396-3.485 5.237-4.989 2.971-2.429 5.725-1.598 7.299 2.218.882 2.14 1.447 4.458 2.099 6.718.782 2.728 1.596 5.378 3.46 7.475 1.284 1.451.461 3.816-1.434 4.4-1.877.578-3.613-.053-4.848-1.645-1.103-1.425-1.999-3.144-2.695-4.889-.814-2.055-1.316-4.279-2.013-6.608zm132.2 147.059c-2.013-5.946-.801-11.318 1.8-16.454.316-.626.877-1.146 1.415-1.556.887-.678 1.873-.768 2.777-.016.936.778.968 1.861.692 3.081l-2.125 9.704c-.656 2.754.135 4.852 1.926 6.592.375.362.778.678 1.185 1.03-1.827 1.856-4.382 1.288-6.879-1.256-4.382 2.533-9.415 1.95-11.821-4.127-.656-1.651-1.104-3.548-1.176-5.357-.262-6.844 1.361-13.121 4.757-18.735.629-1.041 1.425-1.987 2.275-2.791 1.122-1.062 2.501-1.041 3.419-.179.905.852 1.104 2.15.493 3.774-2.193 5.846-3.383 11.96-3.554 18.326-.114 4.153 1.383 6.534 4.816 7.964zm30.404-97.729l-2.329 3.138c-.891 1.067-1.967 1.819-3.31 1.288-1.312-.52-1.651-1.845-1.841-3.28l-.791-5.788c-.068-.915.072-2.055.502-2.781.746-1.246 2.388-.925 3.08.515.393.82.597 1.766.927 2.791l.411-1.141c1.022-2.818 3.36-3.438 5.4-1.461.683.662 1.407 1.288 2.175 1.798.299.195.905.2 1.131-.031.203-.205.217-.925.072-1.288-.438-1.12-.841-2.329-1.524-3.233-3.31-4.379-7.082-7.943-12.269-8.873-1.805-.326-2.564-2.592-1.312-4.221a5.28 5.28 0 0 1 2.791-1.829c2.939-.704 5.748.047 8.226 1.977 4.156 3.238 7.222 7.596 9.262 12.906.348.904.547 1.903.687 2.886.71 4.936-2.478 8.842-6.752 8.143-1.501-.252-2.953-.978-4.536-1.514zM21.519.047l8.733.026c.253.005.602.31.742.584 2.881 5.551 4.238 11.502 3.075 17.957-1.393 7.749-6.662 12.858-13.698 13.542-3.356.326-6.567-.242-9.561-2.066-1.547-.941-2.795-2.266-2.899-4.474-.032-.678.045-1.53.375-2.029.407-.61 1.122-1.251 1.728-1.288.534-.032 1.126.72 1.637 1.204.547.52.945 1.377 1.556 1.677 3.139 1.535 6.372 1.719 9.633.499 3.496-1.304 5.029-4.416 5.513-8.358.488-3.974-.425-7.58-2.492-10.776-1.339-2.092-2.759-4.137-4.341-6.497zm118.533 102.061l10.42-1.12 3.93-.241c1.393.031 2.189.83 2.315 2.05.127 1.246-.438 2.276-1.768 2.697-1.537.488-3.12.788-4.699 1.098l-11.414 2.171c-.163.032-.321.09-.48.121-1.578.305-3.161.5-4.31-1.172-1.126-1.635-.583-3.317.018-4.994l2.945-8.485c.194-.568.284-1.178.483-2.034-.854-.147-1.6-.384-2.347-.389-2.053-.021-4.102.095-6.155.079-.855-.005-1.736-.058-2.55-.326-1.172-.384-1.85-1.404-1.922-2.844-.077-1.504.556-2.576 1.709-3.18.475-.252 1.036-.452 1.542-.41 3.351.247 6.702.526 10.045.899.791.089 1.587.494 2.324.904 1.949 1.083 2.985 3.023 2.533 5.478-.502 2.734-1.366 5.378-2.085 8.059-.136.484-.312.957-.534 1.64zm201.462-60.721c3.261-.762 6.418-1.882 9.249-4 .434-.326.692-1.03.936-1.614.981-2.366 3.157-2.828 4.749-.967l3.794 4.484c.258.305.511.626.719.978.764 1.288.764 2.802.023 3.701-.783.952-1.922.962-3.139-.037-.932-.767-1.827-1.603-2.745-2.408-4.957 4.069-10.519 6.087-16.38 7.102-1.149.2-2.402.147-3.523-.173-2.311-.668-3.333-3.312-2.384-5.861.29-.778.706-1.519 1.163-2.176 2.939-4.232 6.548-7.465 10.867-9.594.488-.242 1.058-.589 1.52-.478.737.173 1.587.505 2.071 1.109.624.783.33 1.856-.308 2.581-.877.999-1.84 1.892-2.767 2.839l-4.039 4.116a7.16 7.16 0 0 1 .194.4zm59.353 142.007c-.185.373-.425 1.246-.932 1.787-1.171 1.257-2.396 2.482-3.731 3.486l-12.803 9.414-19.817 14.72c-1.14.841-2.329 1.613-3.546 2.302-.646.368-1.424.768-2.094.668s-1.546-.631-1.836-1.278c-.257-.568-.04-1.74.339-2.307.616-.915 1.479-1.656 2.339-2.292 5.327-3.959 10.6-8.022 16.045-11.744 6.418-4.384 12.618-9.11 18.551-14.335 1.362-1.199 2.877-2.224 4.432-3.039 1.597-.841 3.071.321 3.053 2.618zM53.859 101.761c6.494.415 11.736 3.743 16.077 9.152 1.791 2.234 3.017 4.894 3.519 7.917.561 3.354-.371 6.119-2.704 8.206-.904.809-1.298.62-1.777-.557-3.405-8.459-8.751-14.394-16.539-17.159-.823-.294-1.664-.541-2.46-.914-1.37-.642-2.089-1.872-1.994-3.254.099-1.467.986-2.639 2.46-2.97 1.122-.263 2.279-.295 3.419-.421zm193.453-75.782l-9.927 2.513c-2.646.746-3.894-.463-3.754-3.638.131-2.996.145-5.998-.818-8.889-.611-1.835.366-3.443 2.116-3.601l9.199-.746c1.198-.089 2.13.704 2.265 1.887.141 1.172-.556 2.208-1.818 2.408l-5.87.725c-.276.032-.547.137-.886.221l.43 5.509 8.068-1.498c2.207-.194 3.432-1.214 3.884-3.701.141-.773.525-1.498.855-2.213.466-1.004 1.176-1.614 2.207-1.425 1.036.194 1.628 1.046 1.687 2.161.068 1.214.122 2.571-.253 3.659-1.447 4.19-3.067 8.306-4.636 12.443-.113.3-.28.668-.511.788-.624.342-1.316.846-1.94.778-.9-.1-1.194-1.13-1.135-2.082.068-1.183.285-2.355.457-3.527.072-.463.194-.904.38-1.772zm50.235 153.409l.954-4.694 1.447-6.355c.398-1.798 1.439-3.06 3.026-2.986 1.307.057 2.718.389 3.871 1.077 2.51 1.504 4.907 3.275 7.313 5.005 1.302.936 2.076 2.313 1.908 4.184-.167 1.887-1.257 2.839-2.645 3.601l-8 4.668c-.62.368-1.212.82-1.855 1.115-3.17 1.477-6.105-.905-6.019-5.615zm-172.356-58.429l14.242.857c1.673.121 2.668 1.125 2.89 2.581.208 1.377-.43 2.602-1.913 3.454l-5.233 2.87-7.476 5.209c-.524.368-1.013.831-1.573 1.109-1.574.778-3.076-.005-3.704-1.866-.091-.268-.19-.541-.217-.82-.245-2.449-1.041-4.636-2.008-6.828-1.506-3.412-.226-6.014 3.039-6.629.646-.121 1.302-.158 1.958-.231l-.005.294zm89.993-107.801c-2.795 0-5.585.037-8.38-.026-.846-.021-1.723-.205-2.528-.526-.968-.384-1.515-1.293-1.533-2.523s.493-2.192 1.46-2.565a8.69 8.69 0 0 1 2.89-.557l14.174-.147 2.586-.074c1.999-.011 3.37 1.419 3.356 3.47-.014 2.045-1.411 3.417-3.405 3.406l-8.625-.005.005-.452zm-1.615 184.724c-1.935-.021-3.591-.72-4.509-2.839-.967-2.239-.47-4.347.625-6.361.366-.667.646-1.398.963-2.102.036-.085.054-.179.086-.268 1.528-3.985 7.959-5.489 10.65-2.482 1.488 1.661 1.755 3.733 1.28 5.951-.914 4.258-5.323 8.153-9.095 8.101zm-.551-4.448c2.17.043 4.631-2.123 5.277-4.331.389-1.325-.004-1.929-1.162-1.467-1.488.599-2.976 1.356-4.269 2.376-.498.389-.556 1.693-.602 2.597-.013.326.615.684.756.825zm73.625-110.471c-1.094-.032-1.827-.515-2.048-1.735-.217-1.183.316-2.229 1.46-2.592l6.92-2.019 16.697-4.91c.714-.21 1.447-.321 2.166-.51 1.352-.363 2.537.331 2.849 1.693.33 1.435-.425 2.749-1.859 3.133L300.6 79.278l-12.948 3.48-1.009.205zm87.365-.783l-.746 5.047c-.118.552-.728 1.225-1.221 1.372l-6.322 1.561-3.279.589c-2.252.189-3.523-1.95-2.601-4.353l2.262-5.53c.407-.967 1.144-1.561 2.003-1.188 1.515.662 2.903.095 4.328-.273l2.496-.762c2.121-.547 3.107.415 3.08 3.538zm-115.716 81.932c.642-1.015 1.036-2.082 1.728-2.649l7.606-5.814c1.217-.899 2.189-.311 2.501 1.356l1.077 5.13c.312 1.351.194 2.298-1.045 3.044l-7.385 4.847c-1.009.668-1.968.315-2.47-.704-.773-1.583-1.302-3.328-2.012-5.21zM18.461 179.998l1.592-10.65c.393-2.303 1.714-3.496 3.292-3.259 1.646.247 2.881 1.903 2.582 4.174-.583 4.415-1.407 8.789-2.212 13.163-.136.751-.592 1.477-1.027 2.092-1.144 1.619-2.596 1.508-3.265-.437-.561-1.629-.674-3.469-.963-5.083zM7.847 13.242l-.592 4.326-.258 1.398c-.262.951-.769 1.614-1.714 1.451-.864-.147-1.262-.857-1.289-1.814L3.99 14.74l.244-5.572c.222-2.77 1.918-3.769 3.727-2.008 3.329 3.243 6.526 6.671 9.719 10.093.999 1.072.918 2.639.027 3.548-.868.888-1.877.631-2.894-.52-2.166-2.455-4.391-4.841-6.594-7.254a6.72 6.72 0 0 1-.371.215zM78.918.11h5.468l-.963 9.709-.335 5.415c-.091 2.281-1.597 3.937-3.451 3.727s-3.089-2.255-2.768-4.421L78.71 1.556 78.918.11zm7.905 156.08c.226-.589.502-1.835 1.112-2.797 1.135-1.797 2.447-3.459 3.722-5.135l4.301-5.504c.927-1.225 2.094-1.635 3.161-.983 1.035.636 1.525 2.092 1.094 3.59a8.05 8.05 0 0 1-.9 2.019c-2.492 3.953-5.481 7.349-8.801 10.356a7.07 7.07 0 0 1-1.248.914c-1.393.794-2.478-.026-2.442-2.46zm32.358-96.877l1.823-11.449.922-5.467.186-.831c.443-1.54 1.451-2.297 2.596-1.956 1.058.321 1.723 1.561 1.506 3.044l-1.732 11.108-1.154 6.723c-.312 1.519-1.311 2.26-2.433 2.061-1.085-.189-1.768-1.33-1.714-3.233zm193.634-35.647c-.005 2.818-2.099 4.332-3.994 3.128-.687-.436-1.27-1.199-1.759-1.934-2.107-3.165-3.563-6.724-4.581-10.54-.33-1.241-.28-2.371.719-3.196.886-.731 1.999-.578 2.935.378.122.126.253.252.344.41l5.956 10.324c.276.494.312 1.167.38 1.43zM97.867 72.292c2.36.011 3.6.794 3.817 2.092.217 1.314-.525 2.281-2.42 3.065l-2.93 1.093-7.444 3.328c-1.714.846-2.695.92-3.356-.137-.669-1.067-.394-2.544.819-3.953 2.42-2.823 5.545-4.006 8.756-4.936 1.063-.305 2.175-.436 2.759-.552zm170.347-60.574c-2.446-.168-4.242-.51-5.286-2.818-.706-1.572-.674-2.991.135-4.431 1.99-3.543 6.585-3.822 8.891-.552 1.624 2.302 1.176 5.404-1.094 6.797-.945.584-2.062.794-2.646 1.004zM-.062 131.578l.154-1.909c.353-2.602 2.012-4.389 4.034-4.363 2.094.027 4.02 2.019 4.07 4.642.032 1.609-.289 3.317-.805 4.815-.624 1.809-1.985 2.781-3.745 2.597s-2.817-1.451-3.333-3.312c-.244-.893-.285-1.861-.375-2.47zm323.726-54.093c-.864 0-1.728.047-2.587-.011-1.791-.11-2.808-1.808-2.071-3.701.692-1.772 1.556-3.475 2.496-5.089.855-1.461 2.528-1.63 3.546-.405 1.076 1.298 2.062 2.712 3.016 4.142.71 1.062.823 2.255.227 3.485-.62 1.277-1.543 1.766-2.782 1.582-.61-.089-1.23-.074-1.845-.11.005.032 0 .068 0 .105zm-11.966-64.432c.262-1.845 1.013-3.075 2.198-3.27 1.221-.205 2.189.673 2.605 2.408l1.641 7.012c.493 2.218.1 3.732-1.035 4.248-1.172.536-2.596-.305-3.293-2.402-.854-2.597-1.424-5.325-2.116-7.996zm-101.285 51.07c-2.442-.121-4.211-2.082-4.161-4.621.05-2.492 1.832-4.5 3.898-4.395 2.253.116 4.071 2.502 3.989 5.23-.068 2.276-1.65 3.885-3.726 3.785zm144.506 58.487c-.014-2.681 1.515-4.81 3.478-4.847 1.904-.032 3.459 1.824 3.468 4.137.009 2.465-1.727 4.789-3.599 4.815-1.841.021-3.338-1.813-3.347-4.105zm11.234-86.333c.009 1.908-1.56 2.97-2.917 2.034a6.37 6.37 0 0 1-1.909-2.155c-.886-1.635-1.641-3.38-2.342-5.136-.371-.941-.168-1.908.655-2.492.878-.615 1.724-.321 2.302.536l3.854 6.066c.235.368.28.883.357 1.146zm-97.685 66.725c-.005-2.119 1.361-3.822 3.084-3.843 1.768-.021 3.641 1.945 3.659 3.843.022 2.187-1.66 4.184-3.496 4.147-1.913-.042-3.238-1.734-3.247-4.147zM8.137.047L15.3.074c.276.005.724.326.796.605l1.022 4.847c.185 1.661-1.158 2.628-2.361 1.693A28.89 28.89 0 0 1 8.137.047zm230.121 38.07c-1.249-.058-2.153-.405-2.42-1.777-.217-1.12.357-2.087 1.578-2.471.941-.294 1.927-.494 2.899-.526 1.19-.037 2.026.82 2.072 1.956.049 1.314-.62 2.024-1.647 2.297-.873.242-1.772.379-2.482.52zm-79.682 113.058c-.059-1.698.615-2.534 2.112-2.618 1.144-.063 2.053.967 2.126 2.424.077 1.524-.86 3.049-1.963 2.928-1.37-.148-2.401-.505-2.275-2.734zm-7.909-56.747c-.005 1.109-1.172 2.176-2.379 2.176-1.393 0-2.388-1.057-2.347-2.487.04-1.298 1.035-2.334 2.243-2.329 1.271 0 2.492 1.298 2.483 2.639zM60.498 11.25c-.027 1.246-.904 2.108-2.094 2.05-1.198-.058-2.022-.967-1.863-2.266.118-.967.036-2.281 1.307-2.371 1.357-.095 2.682 1.267 2.65 2.586zm50.434 68.343c-1.131.016-2.121-.962-2.121-2.097 0-1.156.828-2.139 1.782-2.113.968.026 1.899 1.099 1.922 2.213.023 1.057-.719 1.987-1.583 1.998zm49.01-19.807c-.936 0-1.895.163-2.799-.032-3.37-.72-5.816-4.337-6.187-8.921-.217-2.686.344-5.215 1.149-7.68 1.614-4.931 4.12-9.205 7.258-12.984.452-.541.982-1.03 1.542-1.404.896-.594 1.827-.599 2.605.3.792.915.728 1.976.19 3.012-.972 1.882-2.107 3.664-2.926 5.63-1.316 3.159-2.682 6.34-3.573 9.678-1.071 4.001-.022 7.706 2.257 10.924.204.289.38.599.57.899l-.086.578zm5.246-2.744c-.981.294-1.723-.237-2.234-1.067-.466-.762-.918-1.645-1.054-2.539-.533-3.543-.248-7.034.918-10.382.53-1.509 1.488-2.129 2.578-1.856 1.122.284 1.886 1.425 1.696 3.054-.362 3.112-.882 6.198-1.347 9.294l-.557 3.496z"/></g><defs><clipPath id="A"><path fill="#fff" transform="translate(-83)" d="M0 0h582v470H0z"/></clipPath></defs></svg>