<svg xmlns="http://www.w3.org/2000/svg" width="117" height="26" fill="none" xmlns:v="https://vecta.io/nano"><path d="M34.129 19.162V16.48l5.949-6.656h-5.729V7.191h9.654v2.657l-5.973 6.68h6.119v2.633h-10.02zm15.944.268c-.926 0-1.731-.146-2.438-.439-.731-.293-1.316-.731-1.828-1.268-.488-.536-.853-1.195-1.097-1.95-.268-.78-.39-1.658-.39-2.609s.122-1.804.366-2.56a5.94 5.94 0 0 1 1.073-1.975c.488-.536 1.073-.975 1.78-1.268.683-.293 1.487-.439 2.389-.439.975 0 1.828.171 2.535.512a4.54 4.54 0 0 1 1.731 1.341c.439.561.78 1.195.975 1.95.219.731.317 1.487.317 2.292v1.024h-7.68v.171c0 .78.219 1.39.634 1.853.439.463 1.097.707 1.999.707.707 0 1.268-.146 1.707-.439.463-.268.853-.61 1.243-1l1.682 2.097c-.536.634-1.219 1.122-2.072 1.463-.878.366-1.853.536-2.926.536zM50 9.41c-.683 0-1.219.219-1.609.658-.39.463-.585 1.048-.585 1.804v.171h4.193v-.195c0-.731-.171-1.316-.488-1.78-.341-.439-.829-.658-1.511-.658zm13.945 7.728h-.122c-.097.341-.244.634-.439.902-.195.293-.439.536-.707.731-.293.219-.61.366-.951.488-.366.122-.731.171-1.122.171-1.511 0-2.657-.536-3.437-1.609-.756-1.073-1.146-2.633-1.146-4.656s.39-3.584 1.146-4.632c.78-1.073 1.926-1.609 3.438-1.609a3.59 3.59 0 0 1 2.072.634 2.8 2.8 0 0 1 1.146 1.658h.122V2.315h3.364v16.846h-3.364v-2.023zm-2.218-.439c.634 0 1.17-.171 1.585-.463a1.56 1.56 0 0 0 .634-1.292v-3.535a1.56 1.56 0 0 0-.634-1.292c-.414-.293-.951-.463-1.585-.463s-1.17.219-1.585.683c-.414.439-.61 1.048-.61 1.804v2.072c0 .756.195 1.365.61 1.804.414.463.951.683 1.585.683zm14.798.439h-.122c-.098.341-.244.634-.439.902-.195.293-.439.536-.707.731-.292.219-.609.366-.951.488-.366.122-.731.171-1.121.171-1.512 0-2.657-.536-3.437-1.609-.756-1.073-1.146-2.633-1.146-4.656s.39-3.584 1.146-4.632c.78-1.073 1.926-1.609 3.438-1.609a3.59 3.59 0 0 1 2.072.634c.61.439.975.975 1.146 1.658h.122V2.315h3.364v16.846h-3.364v-2.023zm-2.219-.439c.634 0 1.17-.171 1.585-.463a1.56 1.56 0 0 0 .634-1.292v-3.535a1.56 1.56 0 0 0-.634-1.292c-.415-.293-.951-.463-1.585-.463s-1.17.219-1.585.683c-.414.439-.609 1.048-.609 1.804v2.072c0 .756.195 1.365.609 1.804.415.463.951.683 1.585.683zm7.46-9.508h3.364v2.024h.122c.171-.683.561-1.219 1.146-1.658a3.59 3.59 0 0 1 2.072-.634c1.511 0 2.657.536 3.438 1.609.756 1.048 1.146 2.609 1.146 4.632s-.39 3.584-1.146 4.656c-.78 1.073-1.926 1.609-3.437 1.609-.414 0-.78-.049-1.121-.171s-.658-.268-.951-.488a2.89 2.89 0 0 1-.707-.731c-.195-.268-.341-.561-.439-.902h-.122v6.558h-3.364V7.191zm5.583 9.508c.634 0 1.17-.219 1.585-.683.415-.439.634-1.048.634-1.804V12.14c0-.756-.219-1.365-.634-1.804-.414-.463-.951-.683-1.585-.683s-1.17.171-1.585.463a1.56 1.56 0 0 0-.634 1.292v3.535a1.56 1.56 0 0 0 .634 1.292c.414.293.951.463 1.585.463zm15.823 2.462a2.14 2.14 0 0 1-1.512-.585c-.39-.366-.658-.878-.756-1.512h-.146c-.171.78-.561 1.365-1.194 1.755-.634.414-1.39.609-2.292.609-1.219 0-2.121-.317-2.755-.951-.658-.634-.975-1.487-.975-2.535 0-1.243.463-2.17 1.39-2.804.926-.609 2.17-.902 3.754-.902h1.877v-.756c0-.585-.146-1.048-.463-1.39-.293-.341-.805-.512-1.512-.512-.683 0-1.195.146-1.609.439-.39.293-.707.609-.975.975l-1.999-1.78a5.48 5.48 0 0 1 1.828-1.682c.731-.414 1.731-.609 2.999-.609 1.707 0 2.974.366 3.828 1.121.853.731 1.267 1.828 1.267 3.242v5.242h1.122v2.633h-1.877zm-4.657-2.072c.561 0 1.048-.122 1.438-.366.414-.244.609-.634.609-1.17v-1.414H98.93c-1.316 0-1.975.439-1.975 1.341v.341c0 .439.122.756.39.951.293.195.658.317 1.17.317zm14.628-9.898h3.145L111.68 20.99c-.292.927-.731 1.609-1.268 2.048-.56.439-1.365.658-2.389.658h-2.096v-2.609h2.242l.415-1.316-4.193-12.58h3.364l1.755 5.583.854 3.462h.146l.878-3.462 1.755-5.583z" fill="#1d1c1c"/><path d="M3.24 14.677l3.535-2.926-.341-.122-2.121-.756C-.758 9.581-.832 1.56 5.166 0h17.992c5.9.536 7.363 6.168 2.56 10.434-1.39 1.243-2.999 2.389-4.096 3.242 2.779.975 6.753 1.511 6.461 6.509-.146 2.682-1.78 4.437-3.754 4.778l-17.553.024c-6.534.829-9.532-5.754-3.535-10.312zm6.217-5.169l7.753-6.509H5.19c-4.145 3.633.78 6.241 4.266 6.509zm9.41 6.387l-7.826 6.192 13.043-.171c2.024-.39 2.072-3.413.658-3.95-1.926-.731-3.925-1.39-5.875-2.072zM6.824 21.942L24.353 6.826c1.926-1.804-1.365-5.071-3.413-3.316L3.801 17.846c-2.511 2.682.975 5.729 3.023 4.096z" fill="#007de8"/></svg>