<svg xmlns="http://www.w3.org/2000/svg" width="52" height="52" fill="none" xmlns:v="https://vecta.io/nano"><circle cx="26" cy="26" r="25" fill="#e800a7" stroke="#121212" stroke-width="2"/><path d="M36 24.75c.41 0 .75-.34.75-.75v-1c0-4.41-1.34-5.75-5.75-5.75h-6.25v2.25c0 .41-.34.75-.75.75s-.75-.34-.75-.75v-2.25H21c-4.41 0-5.75 1.34-5.75 5.75v.5c0 .41.34.75.75.75A1.76 1.76 0 0 1 17.75 26 1.76 1.76 0 0 1 16 27.75c-.41 0-.75.34-.75.75v.5c0 4.41 1.34 5.75 5.75 5.75h2.25V32.5c0-.41.34-.75.75-.75s.75.34.75.75v2.25H31c4.41 0 5.75-1.34 5.75-5.75 0-.41-.34-.75-.75-.75a1.76 1.76 0 0 1-1.75-1.75A1.76 1.76 0 0 1 36 24.75zm-11.25 3.42c0 .41-.34.75-.75.75s-.75-.34-.75-.75v-4.34c0-.41.34-.75.75-.75s.75.34.75.75v4.34z" fill="#fff"/></svg>