<svg xmlns="http://www.w3.org/2000/svg" width="52" height="52" fill="none" xmlns:v="https://vecta.io/nano"><circle cx="26" cy="26" r="25" fill="#c800e8" stroke="#121212" stroke-width="2"/><path fill-rule="evenodd" d="M25.728 35.914c.111.058.235.087.358.086a.78.78 0 0 0 .358-.09l3.568-1.907c1.012-.539 1.804-1.142 2.422-1.845 1.344-1.53 2.078-3.482 2.065-5.495l-.042-6.641c-.004-.765-.506-1.447-1.249-1.695L26.571 16.1a1.89 1.89 0 0 0-1.23.007l-6.612 2.306c-.739.258-1.232.945-1.228 1.711l.042 6.636c.013 2.016.772 3.96 2.138 5.474.624.692 1.424 1.287 2.446 1.817l3.601 1.863zm-.945-7.805a.76.76 0 0 0 .536.212.76.76 0 0 0 .533-.219l3.899-3.844a.72.72 0 0 0-.006-1.039.77.77 0 0 0-1.068.006l-3.369 3.32-1.379-1.326a.77.77 0 0 0-1.068.007.72.72 0 0 0 .007 1.039l1.916 1.843z" fill="#fff"/></svg>